<svg xmlns="http://www.w3.org/2000/svg" width="269" height="219" viewBox="0 0 269 219">
  <g id="Group_37" data-name="Group 37" transform="translate(-630 -187)">
    <g id="artist" transform="translate(800 187)">
      <path id="Path_119" data-name="Path 119" d="M100.435,280.242a12.145,12.145,0,0,0-12.146,12.146v24.291h72.874V292.388a12.146,12.146,0,0,0-12.146-12.146Zm0,0" transform="translate(-72.681 -228.197)" fill="#57b7eb"/>
      <path id="Path_120" data-name="Path 120" d="M98.916,289.8v-9a12.145,12.145,0,0,0-10.627,12.04v24.291h72.874v-9.109H117.135A18.218,18.218,0,0,1,98.916,289.8Zm0,0" transform="translate(-72.681 -228.65)" fill="#4891d3"/>
      <path id="Path_121" data-name="Path 121" d="M152.289,280.242h3.036v22.773h-3.036Zm0,0" transform="translate(-123.764 -227.95)" fill="#4891d3"/>
      <path id="Path_122" data-name="Path 122" d="M344.289,280.242h3.036V298.46h-3.036Zm0,0" transform="translate(-279.802 -227.896)" fill="#4891d3"/>
      <path id="Path_123" data-name="Path 123" d="M153.807,376.242l-1.518,18.218h48.583l-1.518-18.218Zm0,0" transform="translate(-124.536 -305.979)" fill="#a1d51c"/>
      <path id="Path_124" data-name="Path 124" d="M355.325,382.315a3.037,3.037,0,0,0,3.036-3.036v-3.036h-6.073v3.036A3.036,3.036,0,0,0,355.325,382.315Zm0,0" transform="translate(-286.335 -305.979)" fill="#7ab92d"/>
      <path id="Path_125" data-name="Path 125" d="M174.864,388.388A15.183,15.183,0,0,1,160,376.242h-6.194l-1.518,18.218h48.583l-.5-6.073Zm0,0" transform="translate(-124.536 -305.979)" fill="#7ab92d"/>
      <path id="Path_126" data-name="Path 126" d="M200.289,440.242h30.364v6.073H200.289Zm0,0" transform="translate(-162.996 -357.833)" fill="#fcbc04"/>
      <path id="Path_127" data-name="Path 127" d="M168.289,280.242h6.073V301.5a3.036,3.036,0,1,1-6.073,0Zm0,0" transform="translate(-136.782 -228.197)" fill="#c4f236"/>
      <path id="Path_128" data-name="Path 128" d="M171.325,296.942v-16.7h-3.036V301.5a3.036,3.036,0,1,0,6.073,0v-1.518A3.036,3.036,0,0,1,171.325,296.942Zm0,0" transform="translate(-136.782 -228.197)" fill="#a1d51c"/>
      <path id="Path_129" data-name="Path 129" d="M360.289,280.242h6.073V301.5a3.036,3.036,0,0,1-6.073,0Zm0,0" transform="translate(-292.837 -228.197)" fill="#c4f236"/>
      <path id="Path_130" data-name="Path 130" d="M363.325,296.942v-16.7h-3.036V301.5a3.036,3.036,0,0,0,6.073,0v-1.518A3.036,3.036,0,0,1,363.325,296.942Zm0,0" transform="translate(-292.837 -228.197)" fill="#a1d51c"/>
      <path id="Path_131" data-name="Path 131" d="M247.88,255.424a7.591,7.591,0,0,1-7.591-7.591v-7.591h15.182v7.591A7.591,7.591,0,0,1,247.88,255.424Zm0,0" transform="translate(-195.377 -195.344)" fill="#fcbc04"/>
      <path id="Path_132" data-name="Path 132" d="M240.289,247.833v.258a15.183,15.183,0,0,0,15.182-1.776v-6.073H240.289Zm0,0" transform="translate(-195.377 -195.295)" fill="#e59730"/>
      <path id="Path_133" data-name="Path 133" d="M200.289,104.242h30.364v15.182a15.182,15.182,0,1,1-30.364,0Zm0,0" transform="translate(-162.996 -84.848)" fill="#f9e109"/>
      <path id="Path_134" data-name="Path 134" d="M200.289,104.242v15.182a15.182,15.182,0,0,0,15.182,15.182,15.532,15.532,0,0,0,3.036-.3,15.182,15.182,0,0,1-12.146-14.878v-5.329a9.582,9.582,0,0,0,3.8.775,9.789,9.789,0,0,0,6.512-2.475,6.074,6.074,0,0,0,4.874,2.475,5.967,5.967,0,0,0,3.765-1.351,7.589,7.589,0,0,0,4.3,3.917,4.418,4.418,0,0,0,.744,5.025,15.763,15.763,0,0,0,.3-3.036V104.242Zm0,0" transform="translate(-162.996 -84.848)" fill="#fcbc04"/>
      <path id="Path_135" data-name="Path 135" d="M191.469,35.335a7.59,7.59,0,0,0-.729-12.312,3.757,3.757,0,0,0,.547-1.928,3.8,3.8,0,0,0-3.8-3.8,4.138,4.138,0,0,0-.759.076V17.3a9.11,9.11,0,0,0-15.182-6.8,11.372,11.372,0,0,0-17.08,4.129,5.284,5.284,0,0,0-6.681,7.227,8.335,8.335,0,0,0,1.518,14.529,4.41,4.41,0,0,0-.531,2.171,4.555,4.555,0,1,0,8.152-2.764,8.27,8.27,0,0,0,2.945-3.036,9.823,9.823,0,0,0,11.356-1.2A6.075,6.075,0,0,0,176.1,34a5.967,5.967,0,0,0,3.765-1.351,7.589,7.589,0,0,0,4.3,3.917,4.55,4.55,0,1,0,7.3-1.23Zm0,0" transform="translate(-117.604 -6.653)" fill="#57b7eb"/>
      <path id="Path_136" data-name="Path 136" d="M192.471,36.905a4.39,4.39,0,0,1-1.184.182,4.533,4.533,0,0,1-4.085-6.544,7.589,7.589,0,0,1-4.3-3.917,5.967,5.967,0,0,1-3.765,1.351,6.074,6.074,0,0,1-4.874-2.475,9.853,9.853,0,1,1-8.016-17.14,12.854,12.854,0,0,0-1.518-.122,11.386,11.386,0,0,0-10.248,6.437,5.284,5.284,0,0,0-6.7,7.227,8.335,8.335,0,0,0,1.518,14.529,4.411,4.411,0,0,0-.531,2.171,4.555,4.555,0,1,0,8.152-2.764,8.27,8.27,0,0,0,2.945-3.036,9.823,9.823,0,0,0,11.356-1.2,6.075,6.075,0,0,0,4.874,2.445A5.967,5.967,0,0,0,179.87,32.7a7.589,7.589,0,0,0,4.3,3.917,4.552,4.552,0,1,0,8.3.288Zm0,0" transform="translate(-117.578 -6.705)" fill="#4891d3"/>
      <path id="Path_137" data-name="Path 137" d="M8.289,280.242H38.653v24.291H8.289Zm0,0" transform="translate(-6.716 -228.197)" fill="#aae1f9"/>
      <path id="Path_138" data-name="Path 138" d="M14.362,286.315v-6.073H8.289v24.291H38.653V298.46H26.508a12.146,12.146,0,0,1-12.146-12.146Zm0,0" transform="translate(-6.716 -228.197)" fill="#57b7eb"/>
      <path id="Path_139" data-name="Path 139" d="M47.88,343.833H40.289l3.8-7.591Zm0,0" transform="translate(-32.643 -273.307)" fill="#fcbc04"/>
      <path id="Path_140" data-name="Path 140" d="M47.3,354.281a12.148,12.148,0,0,1-4.555-3.719l-2.459,4.873H47.88Zm0,0" transform="translate(-32.643 -284.918)" fill="#e59730"/>
      <path id="Path_141" data-name="Path 141" d="M96.289,312.242h7.591v7.591H96.289Zm0,0" transform="translate(-78.267 -253.801)" fill="#f8664f"/>
      <path id="Path_142" data-name="Path 142" d="M74.2,175.943a1.672,1.672,0,0,1-2.232.091l-12.8-10.871,4.3-4.281,10.825,12.783A1.655,1.655,0,0,1,74.2,175.943Zm0,0" transform="translate(-47.939 -130.827)" fill="#f9e109"/>
      <path id="Path_143" data-name="Path 143" d="M22.241,134.44l-4.3,4.281L15.3,137.355a7.316,7.316,0,0,1-2.718-2.277l-4.3-6.012,5.223-.744a7.443,7.443,0,0,1,7.7,4.039Zm0,0" transform="translate(-6.716 -104.271)" fill="#aae1f9"/>
      <path id="Path_144" data-name="Path 144" d="M19.676,134.87c-4.024,0-7.485-1.67-9.019-4.069l-2.368.334,4.3,6.073a7.311,7.311,0,0,0,2.718,2.217l2.642,1.32,4.3-4.281-.866-1.746a15.732,15.732,0,0,1-1.7.152Zm0,0" transform="translate(-6.716 -106.345)" fill="#57b7eb"/>
      <path id="Path_145" data-name="Path 145" d="M73.8,184.4a1.656,1.656,0,0,1-1.868-.151L60.792,174.8l-1.624,1.64,12.8,10.779a1.612,1.612,0,0,0,2.323-2.232Zm0,0" transform="translate(-47.939 -142.126)" fill="#fcbc04"/>
      <g id="Group_17" data-name="Group 17">
        <path id="Path_146" data-name="Path 146" d="M307.325,169.76a1.518,1.518,0,1,1-1.518-1.518A1.518,1.518,0,0,1,307.325,169.76Zm0,0" transform="translate(-247.294 -136.744)" fill="#39519d"/>
        <path id="Path_147" data-name="Path 147" d="M243.325,169.76a1.518,1.518,0,1,1-1.518-1.518A1.518,1.518,0,0,1,243.325,169.76Zm0,0" transform="translate(-195.282 -136.744)" fill="#39519d"/>
        <path id="Path_148" data-name="Path 148" d="M224.171,432.242H193.807a1.518,1.518,0,0,0-1.518,1.518v6.073a1.518,1.518,0,1,0,3.036,0v-4.555h27.328v4.555a1.518,1.518,0,1,0,3.036,0V433.76A1.518,1.518,0,0,0,224.171,432.242Zm0,0" transform="translate(-156.522 -351.351)" fill="#39519d"/>
        <path id="Path_149" data-name="Path 149" d="M188.014,21.158a1.509,1.509,0,0,0-1.518,1.5,5.974,5.974,0,0,1-2.293,4.649,1.5,1.5,0,0,0-.122,2.234,3,3,0,0,1-1.023,4.936,3.063,3.063,0,0,1-3.354-.76,2.972,2.972,0,0,1-.48-3.366,1.484,1.484,0,0,0,.042-1.222,1.51,1.51,0,0,0-.893-.847,6.046,6.046,0,0,1-3.432-3.089,1.515,1.515,0,0,0-1.028-.827,1.534,1.534,0,0,0-1.294.288,4.593,4.593,0,0,1-6.468-.825,1.546,1.546,0,0,0-2.231-.24,8.448,8.448,0,0,1-3.963,1.935A1.527,1.527,0,0,0,158.72,27.3a1.543,1.543,0,0,0,1.8,1.222,11.463,11.463,0,0,0,4.236-1.725,7.665,7.665,0,0,0,8.3,1.17,8.751,8.751,0,0,0,2.93,2.579,6.072,6.072,0,0,0-.121,1.11,5.957,5.957,0,0,0,1.518,3.854A13.686,13.686,0,0,1,150.3,36.725a5.982,5.982,0,0,0,2.794-5.069,6.047,6.047,0,0,0-.471-2.31,10.09,10.09,0,0,0,2.277-2.715,1.49,1.49,0,0,0-.592-2.039,1.528,1.528,0,0,0-2.065.584,6.9,6.9,0,0,1-2.414,2.475,1.489,1.489,0,0,0-.41,2.189,2.969,2.969,0,0,1,.09,3.557,3.058,3.058,0,0,1-3.412,1.139,3,3,0,0,1-2.113-2.881,3.067,3.067,0,0,1,.38-1.425,1.486,1.486,0,0,0,.106-1.215,1.508,1.508,0,0,0-.85-.885,6.7,6.7,0,0,1-1.275-11.743,1.49,1.49,0,0,0,.5-1.875,3.6,3.6,0,0,1-.38-1.6,3.719,3.719,0,0,1,1.639-3.09,3.819,3.819,0,0,1,3.507-.4,1.526,1.526,0,0,0,1.913-.735,9.814,9.814,0,0,1,6.558-5.243,9.932,9.932,0,0,1,8.259,1.7,1.533,1.533,0,0,0,1.928-.075,7.664,7.664,0,0,1,8.181-1.221,7.5,7.5,0,0,1,4.451,6.889,1.492,1.492,0,0,0,.546,1.183,1.532,1.532,0,0,0,1.276.317,2.343,2.343,0,0,1,1.869.472,2.288,2.288,0,0,1,.864,1.7,2.108,2.108,0,0,1-.334,1.139,1.489,1.489,0,0,0,.532,2.055,1.528,1.528,0,0,0,2.08-.525,5.136,5.136,0,0,0,.759-2.669,5.272,5.272,0,0,0-4.661-5.249,10.517,10.517,0,0,0-6.3-8.106,10.738,10.738,0,0,0-10.293,1.027A13.012,13.012,0,0,0,155.435.489,12.863,12.863,0,0,0,147.4,6.266a5.883,5.883,0,0,0-1.139-.1,6.805,6.805,0,0,0-6.832,6.749,6.357,6.357,0,0,0,.242,1.755,9.665,9.665,0,0,0,1.518,15.567,5.639,5.639,0,0,0-.242,1.425,6.036,6.036,0,0,0,6.073,6h.288a16.563,16.563,0,0,0,7.3,10.783v2.715h-6.073a1.509,1.509,0,0,0-1.518,1.5v21a1.518,1.518,0,0,0,3.036,0v-1.5h27.328v1.5a4.527,4.527,0,0,0,4.555,4.5,4.576,4.576,0,0,0,3.522-1.68l1.033,12.3a1.511,1.511,0,0,0,1.518,1.38h.121a1.528,1.528,0,0,0,1.04-.523,1.491,1.491,0,0,0,.357-1.1l-1.518-18a1.511,1.511,0,0,0-1.518-1.38v-16.5a1.509,1.509,0,0,0-1.518-1.5H172.832V48.438a16.619,16.619,0,0,0,7.332-11.083,5.816,5.816,0,0,0,1.777.3,6.088,6.088,0,0,0,5.254-3,5.937,5.937,0,0,0,0-6,8.938,8.938,0,0,0,2.338-6,1.509,1.509,0,0,0-1.518-1.5Zm-4.555,52.489a1.518,1.518,0,0,1-3.036,0v-19.5h3.036Zm-6.073-4.5H150.059v-15h4.691a9.129,9.129,0,0,0,17.945,0h4.692Zm-7.591-16.5a6.073,6.073,0,0,1-12.146,0V50a16.5,16.5,0,0,0,6.073,1.155A16.691,16.691,0,0,0,169.8,50Zm0,0" transform="translate(-111.678 -0.144)" fill="#39519d"/>
        <path id="Path_150" data-name="Path 150" d="M417.978,274.3a1.519,1.519,0,1,0-.805,2.93,10.629,10.629,0,0,1,8.017,10.294v24.291a1.518,1.518,0,1,0,3.036,0V287.523A13.664,13.664,0,0,0,417.978,274.3Zm0,0" transform="translate(-338.226 -223.332)" fill="#39519d"/>
        <path id="Path_151" data-name="Path 151" d="M32.521,338.193a1.519,1.519,0,0,0,1.291.714H41.4a1.518,1.518,0,0,0,1.351-2.2l-3.8-7.591a1.518,1.518,0,0,0-2.7,0l-3.8,7.591A1.519,1.519,0,0,0,32.521,338.193Zm5.086-4.995,1.336,2.672H36.271Zm0,0" transform="translate(-26.166 -266.874)" fill="#39519d"/>
        <path id="Path_152" data-name="Path 152" d="M97.4,307.278a1.518,1.518,0,1,0,0-3.036H89.807a1.518,1.518,0,0,0-1.518,1.518v7.591a1.518,1.518,0,0,0,1.518,1.518H97.4a1.518,1.518,0,1,0,0-3.036H91.325v-4.555Zm0,0" transform="translate(-71.773 -247.328)" fill="#39519d"/>
        <path id="Path_153" data-name="Path 153" d="M35.326,305.76a1.518,1.518,0,1,1-1.518-1.518A1.518,1.518,0,0,1,35.326,305.76Zm0,0" transform="translate(-26.161 -247.26)" fill="#39519d"/>
        <path id="Path_154" data-name="Path 154" d="M4.609,129.458a8.873,8.873,0,0,0,3.279,2.808l2.475,1.245,12.662,10.627a3.038,3.038,0,0,0,2.034.744,3.091,3.091,0,0,0,2.5-5.131L16.755,127.09l-.957-1.913a8.911,8.911,0,0,0-9.276-4.858l-5.208.744A1.541,1.541,0,0,0,.3,123.491Zm20.556,12.434a.137.137,0,0,1-.182,0L13.445,132.13l.987-.972.972-.987,9.762,11.539a.136.136,0,0,1,.03.182ZM7.007,123.264a5.9,5.9,0,0,1,6.073,3.2l.562,1.108-2.7,2.809-1.67-.835A5.947,5.947,0,0,1,7.1,127.7l-2.839-3.978Zm0,0" transform="translate(0 -97.817)" fill="#39519d"/>
        <path id="Path_155" data-name="Path 155" d="M32.171,259.278H18.507V257.76a1.518,1.518,0,1,0-3.036,0v1.518H1.807A1.518,1.518,0,0,0,.289,260.8v13.664a1.518,1.518,0,0,0,3.036,0V262.315H30.653V283.57H3.325v-3.036a1.518,1.518,0,1,0-3.036,0v4.555a1.518,1.518,0,0,0,1.518,1.518h8.972l-1.291,3.036H6.362a1.518,1.518,0,0,0,0,3.036H8.183l-1.7,3.962a1.517,1.517,0,1,0,2.794,1.184l2.2-5.146h3.993v4.555a1.518,1.518,0,0,0,3.036,0v-4.555H22.5l2.2,5.146a1.517,1.517,0,1,0,2.794-1.184l-1.7-3.962h1.822a1.518,1.518,0,0,0,0-3.036H24.489L23.2,286.606h8.973a1.518,1.518,0,0,0,1.518-1.518V260.8a1.518,1.518,0,0,0-1.518-1.518ZM12.784,289.643l1.305-3.036h1.382v3.036Zm8.41,0H18.508v-3.036h1.381Zm0,0" transform="translate(-0.234 -208.752)" fill="#39519d"/>
      </g>
    </g>
    <g id="professions-and-jobs" transform="translate(630 316)">
      <path id="Path_156" data-name="Path 156" d="M100.005,280A12.005,12.005,0,0,0,88,292.005v24.011h72.033V292.005A12.005,12.005,0,0,0,148.027,280Zm0,0" transform="translate(-71.533 -227.517)" fill="#f8664f"/>
      <path id="Path_157" data-name="Path 157" d="M98.5,289.458v-8.9a12.006,12.006,0,0,0-10.5,11.9V316.47h72.033v-9h-43.52A18.008,18.008,0,0,1,98.5,289.458Zm0,0" transform="translate(-71.533 -227.971)" fill="#cc5144"/>
      <path id="Path_158" data-name="Path 158" d="M372.5,384v16.507H368V388.5A4.5,4.5,0,0,1,372.5,384Zm0,0" transform="translate(-299.002 -312.008)" fill="#cc5144"/>
      <path id="Path_159" data-name="Path 159" d="M166,8h21.01a18.008,18.008,0,0,1,0,36.016H175.007A15.007,15.007,0,0,1,160,29.01V14A6,6,0,0,1,166,8Zm0,0" transform="translate(-130.014 -6.499)" fill="#57b7eb"/>
      <path id="Path_160" data-name="Path 160" d="M217,17h24.581a18.008,18.008,0,0,0-15.577-9H208a9,9,0,0,0,9,9Zm0,0" transform="translate(-169.01 -6.499)" fill="#aae1f9"/>
      <path id="Path_161" data-name="Path 161" d="M247.5,255.007a7.5,7.5,0,0,1-7.5-7.5V240h15.007v7.5A7.5,7.5,0,0,1,247.5,255.007Zm0,0" transform="translate(-195.004 -195.004)" fill="#fcbc04"/>
      <path id="Path_162" data-name="Path 162" d="M240,247.5v.255A15.006,15.006,0,0,0,255.007,246v-6H240Zm0,0" transform="translate(-195.004 -195.002)" fill="#e59730"/>
      <path id="Path_163" data-name="Path 163" d="M200,104h30.014v15.007a15.007,15.007,0,1,1-30.014,0Zm0,0" transform="translate(-162.509 -84.504)" fill="#f9e109"/>
      <path id="Path_164" data-name="Path 164" d="M206,99.509v-4.5a6,6,0,0,1,6-6h18.008V84.5h-4.5l-3-4.5-2.686,4.5H200V99.509a15.007,15.007,0,0,0,15.007,15.007,15.3,15.3,0,0,0,3-.3A15.006,15.006,0,0,1,206,99.509Zm0,0" transform="translate(-162.508 -65.004)" fill="#fcbc04"/>
      <path id="Path_165" data-name="Path 165" d="M11,360H35.012a3,3,0,0,1,3,3v15.007a3,3,0,0,1-3,3H11a3,3,0,0,1-3-3V363A3,3,0,0,1,11,360Zm0,0" transform="translate(-6.499 -292.51)" fill="#a1d51c"/>
      <path id="Path_166" data-name="Path 166" d="M65.5,328h6a1.5,1.5,0,0,1,1.5,1.5V334H64v-4.5A1.5,1.5,0,0,1,65.5,328Zm0,0" transform="translate(-51.995 -266.502)" fill="#a1d51c"/>
      <path id="Path_167" data-name="Path 167" d="M73,396.5a4.5,4.5,0,1,1-4.5-4.5A4.5,4.5,0,0,1,73,396.5Zm0,0" transform="translate(-51.995 -318.508)" fill="#57b7eb"/>
      <path id="Path_168" data-name="Path 168" d="M12.5,361.5V360H11a3,3,0,0,0-3,3v15.007a3,3,0,0,0,3,3H35.012a3,3,0,0,0,3-3v-1.5h-10.5A15.007,15.007,0,0,1,12.5,361.5Zm0,0" transform="translate(-6.499 -292.51)" fill="#7ab92d"/>
      <path id="Path_169" data-name="Path 169" d="M80,328h4.5a1.5,1.5,0,0,1,1.5,1.5V331H83A3,3,0,0,1,80,328Zm0,0" transform="translate(-65 -266.501)" fill="#c4f236"/>
      <path id="Path_170" data-name="Path 170" d="M64,360H80.507a3,3,0,0,1,3,3H67A3,3,0,0,1,64,360Zm0,0" transform="translate(-51.995 -292.501)" fill="#c4f236"/>
      <path id="Path_171" data-name="Path 171" d="M76.172,400a3,3,0,0,0-2.731,1.771,2.989,2.989,0,0,1,3.961,3.961A3,3,0,0,0,76.172,400Zm0,0" transform="translate(-59.672 -325.007)" fill="#4891d3"/>
      <path id="Path_172" data-name="Path 172" d="M8,120H29.01v21.009H8Zm0,0" transform="translate(-6.499 -97.503)" fill="#aae1f9"/>
      <path id="Path_173" data-name="Path 173" d="M12.5,124.5V120H8v21.009H29.01v-4.5h-4.5A12.005,12.005,0,0,1,12.5,124.5Zm0,0" transform="translate(-6.499 -97.503)" fill="#57b7eb"/>
      <path id="Path_174" data-name="Path 174" d="M54,155a3,3,0,1,1-3-3A3,3,0,0,1,54,155Zm0,0" transform="translate(-38.996 -123.501)" fill="#fcbc04"/>
      <path id="Path_175" data-name="Path 175" d="M43,184h3a3,3,0,0,1,3,3v6H40v-6A3,3,0,0,1,43,184Zm0,0" transform="translate(-32.497 -149.502)" fill="#fcbc04"/>
      <path id="Path_176" data-name="Path 176" d="M52.451,157.673a2.989,2.989,0,0,1-2.731-4.232,3,3,0,1,0,3.961,3.961,2.994,2.994,0,0,1-1.23.27Zm0,0" transform="translate(-38.945 -124.672)" fill="#e59730"/>
      <path id="Path_177" data-name="Path 177" d="M43,184a3,3,0,0,0-3,3v6h9v-3A6,6,0,0,1,43,184Zm0,0" transform="translate(-32.497 -149.502)" fill="#e59730"/>
      <g id="Group_18" data-name="Group 18">
        <path id="Path_178" data-name="Path 178" d="M315,153.5a1.5,1.5,0,1,1-1.5-1.5A1.5,1.5,0,0,1,315,153.5Zm0,0" transform="translate(-253.501 -123.5)" fill="#39519d"/>
        <path id="Path_179" data-name="Path 179" d="M235,153.5a1.5,1.5,0,1,1-1.5-1.5A1.5,1.5,0,0,1,235,153.5Zm0,0" transform="translate(-188.501 -123.5)" fill="#39519d"/>
        <path id="Path_180" data-name="Path 180" d="M307,345.5a1.5,1.5,0,1,1-1.5-1.5A1.5,1.5,0,0,1,307,345.5Zm0,0" transform="translate(-247.001 -279.501)" fill="#39519d"/>
        <path id="Path_181" data-name="Path 181" d="M307,377.5a1.5,1.5,0,1,1-1.5-1.5A1.5,1.5,0,0,1,307,377.5Zm0,0" transform="translate(-247.001 -305.501)" fill="#39519d"/>
        <path id="Path_182" data-name="Path 182" d="M385.5,384a1.5,1.5,0,0,0-1.5,1.5v15.007a1.5,1.5,0,1,0,3,0V385.5A1.5,1.5,0,0,0,385.5,384Zm0,0" transform="translate(-312.001 -312.008)" fill="#39519d"/>
        <path id="Path_183" data-name="Path 183" d="M159.29,51h-15V48.315a16.5,16.5,0,0,0,7.5-13.5A19.5,19.5,0,0,0,139.792,0h-21a7.5,7.5,0,0,0-7.5,7.5v15a16.5,16.5,0,0,0,7.6,13.845,16.5,16.5,0,0,0,7.394,12V51h-15a13.5,13.5,0,0,0-8.909,3.375,1.519,1.519,0,0,0,2.04,2.25A10.394,10.394,0,0,1,111.3,54h15.133a9,9,0,0,0,7.364,7.365V75a1.5,1.5,0,1,0,3,0V61.366A9,9,0,0,0,144.157,54H159.29a10.5,10.5,0,0,1,10.5,10.5v24a1.5,1.5,0,1,0,3,0v-24A13.5,13.5,0,0,0,159.29,51Zm-37.5-16.5V21h3a1.5,1.5,0,0,0,0-3h-4.5a1.5,1.5,0,0,0-1.5,1.5v13a13.5,13.5,0,0,1-4.5-10V7.5a4.5,4.5,0,0,1,4.5-4.5h21a16.5,16.5,0,0,1,12,27.765V19.5a1.5,1.5,0,0,0-1.5-1.5H146.6l-2.565-3.825a1.5,1.5,0,0,0-2.49,0L138.982,18h-8.189a1.5,1.5,0,0,0,0,3h9a1.5,1.5,0,0,0,1.245-.675l1.755-2.625,1.755,2.625a1.5,1.5,0,0,0,1.245.675h3V34.5a13.5,13.5,0,1,1-27,0Zm13.5,24a6,6,0,0,1-6-6v-2.64a16.365,16.365,0,0,0,12,0V52.5A6,6,0,0,1,135.293,58.5Zm0,0" transform="translate(-82.788 0)" fill="#39519d"/>
        <path id="Path_184" data-name="Path 184" d="M28.513,326h-6v-3a3,3,0,0,0-3-3h-6a3,3,0,0,0-3,3v3h-3v-1.5a1.5,1.5,0,0,0-3,0V326A4.5,4.5,0,0,0,0,330.5v7.5a1.5,1.5,0,1,0,3,0v-7.5A1.5,1.5,0,0,1,4.5,329H28.513a1.5,1.5,0,0,1,1.5,1.5v15.007a1.5,1.5,0,0,1-1.5,1.5H4.5a1.5,1.5,0,0,1-1.5-1.5v-1.5a1.5,1.5,0,0,0-3,0v1.5a4.5,4.5,0,0,0,4.5,4.5H28.513a4.5,4.5,0,0,0,4.5-4.5V330.5A4.5,4.5,0,0,0,28.513,326Zm-15.007,0v-3h6v3Zm0,0" transform="translate(0 -260.014)" fill="#39519d"/>
        <path id="Path_185" data-name="Path 185" d="M62,387a3,3,0,0,1,3,3,1.5,1.5,0,1,0,3,0,6,6,0,1,0-6,6,1.5,1.5,0,1,0,0-3,3,3,0,0,1,0-6Zm0,0" transform="translate(-45.495 -312.008)" fill="#39519d"/>
        <path id="Path_186" data-name="Path 186" d="M131,385.5a1.5,1.5,0,1,1-1.5-1.5A1.5,1.5,0,0,1,131,385.5Zm0,0" transform="translate(-104 -312.001)" fill="#39519d"/>
        <path id="Path_187" data-name="Path 187" d="M1.5,136.011H22.51a1.5,1.5,0,0,0,1.5-1.5V113.5a1.5,1.5,0,0,0-1.5-1.5H1.5A1.5,1.5,0,0,0,0,113.5V134.51A1.5,1.5,0,0,0,1.5,136.011Zm9-13.506a1.5,1.5,0,1,1,1.5,1.5A1.5,1.5,0,0,1,10.5,122.5ZM3,115H21.01v18.008h-3v-4.5a4.5,4.5,0,0,0-2.1-3.8,4.415,4.415,0,0,0,.6-2.206,4.5,4.5,0,1,0-9,0,4.415,4.415,0,0,0,.6,2.206,4.5,4.5,0,0,0-2.1,3.8,1.5,1.5,0,1,0,3,0,1.5,1.5,0,0,1,1.5-1.5h3a1.5,1.5,0,0,1,1.5,1.5v4.5H3Zm0,0" transform="translate(0 -91.004)" fill="#39519d"/>
      </g>
    </g>
    <g id="avatar" transform="translate(630 187)">
      <path id="Path_242" data-name="Path 242" d="M92.837,96.407H88.821v-2.62a.715.715,0,0,0-.712-.717H86.152c.022-.216.033-.435.033-.656a6.618,6.618,0,0,0-4.264-6.186V83.557a21.548,21.548,0,0,0-5.808-14.739.68.68,0,0,0-.093-.1,21.413,21.413,0,0,0-9.358-5.807.36.36,0,0,0-.054-.015,21.08,21.08,0,0,0-3.2-.693,16.98,16.98,0,0,0,8.9-10.589,2.2,2.2,0,0,0,.747.431.7.7,0,0,0,.377.125c.074,0,.144-.008.217-.011.037,0,.071.011.108.011a2.2,2.2,0,0,0,.506-.064A6.106,6.106,0,0,0,77.19,41.293a21.58,21.58,0,0,0-6.469-19.477,21.137,21.137,0,0,0-16.079-5.759A21.411,21.411,0,0,0,35.115,33.372H29.506a2.779,2.779,0,0,0,0,5.557h5.25a21.566,21.566,0,0,0,.282,2.364,6.107,6.107,0,0,0,2.827,10.8,5.371,5.371,0,0,0,4.616,4.7,16.951,16.951,0,0,0,6.4,5.416,21.107,21.107,0,0,0-3.2.694.45.45,0,0,0-.044.013,21.423,21.423,0,0,0-9.365,5.81.739.739,0,0,0-.094.1,21.55,21.55,0,0,0-5.808,14.738v2.623a6.619,6.619,0,0,0-4.393,6.234c0,.221.012.44.033.656H24.121a.715.715,0,0,0-.712.717v2.62H19.393a3.369,3.369,0,0,0,0,6.739H92.838a3.369,3.369,0,0,0,0-6.739ZM39.294,52.028a2.205,2.205,0,0,0,.691-.413,16.885,16.885,0,0,0,1.343,3.324,3.957,3.957,0,0,1-2.034-2.911Zm0,0" transform="translate(-13.185 -13.145)" fill="#e6e7e8"/>
      <path id="Path_243" data-name="Path 243" d="M114,260.574h-8.76a20.783,20.783,0,0,0-20.783,20.784V284.5a5.877,5.877,0,0,1,7.193,7.059h7.994v3.327h19.892V291.56h7.923a5.873,5.873,0,0,1,7.323-7.026v-3.177A20.782,20.782,0,0,0,114,260.574Zm0,0" transform="translate(-69.505 -213.755)" fill="#f9e109"/>
      <path id="Path_244" data-name="Path 244" d="M146.653,270.59h-8.76a20.691,20.691,0,0,0-13.674,5.141,10.646,10.646,0,0,1,5.03,9.043v15.011H132.3v3.327h19.892v-3.327h3.105V284.774a10.646,10.646,0,0,1,5.031-9.044,20.685,20.685,0,0,0-13.672-5.14Zm0,0" transform="translate(-102.165 -221.98)" fill="#6dc9f7"/>
      <path id="Path_245" data-name="Path 245" d="M196.056,257.036a16.116,16.116,0,0,1-6.345-1.293v2.338a6.345,6.345,0,0,0,12.69,0v-2.338A16.121,16.121,0,0,1,196.056,257.036Zm0,0" transform="translate(-155.951 -209.888)" fill="#f9e109"/>
      <path id="Path_246" data-name="Path 246" d="M134.78,123.872c-.01.233-.018.468-.018.7v8a16.168,16.168,0,0,0,32.337,0v-8c0-.235-.008-.469-.018-.7h-32.3Zm0,0" transform="translate(-110.824 -101.645)" fill="#f9e109"/>
      <path id="Path_247" data-name="Path 247" d="M159.773,35.292a18.145,18.145,0,0,0-36.223,1.551c0,.107.008.338.022.659h36.179c.036-1.085.048-1.894.022-2.21Zm0,0" transform="translate(-101.615 -15.355)" fill="#0089ef"/>
      <path id="Path_248" data-name="Path 248" d="M72.152,103.319a20.3,20.3,0,0,1,.27-2.444H66.189a2.056,2.056,0,1,0,0,4.112h5.959c-.019-.555-.022-1.11,0-1.668Zm0,0" transform="translate(-52.675 -82.791)" fill="#0089ef"/>
      <path id="Path_249" data-name="Path 249" d="M204.46,353.041a5.771,5.771,0,1,1-5.771-5.772A5.772,5.772,0,0,1,204.46,353.041Zm0,0" transform="translate(-158.584 -284.998)" fill="#fa759e"/>
      <path id="Path_250" data-name="Path 250" d="M216.748,357.551l-3.767,4.614h1.962l-1.337,3.253,3.743-4.352h-2.228Zm0,0" transform="translate(-175.061 -293.444)" fill="#fff"/>
      <path id="Path_251" data-name="Path 251" d="M140.92,28.814a20.771,20.771,0,1,0-40.746,0,5.367,5.367,0,0,0,2.417,9.791l.016,0,.023,0a1.5,1.5,0,0,0,.27.027c.031,0,.059-.007.089-.009.06,0,.118.009.179.009v-.027a1.506,1.506,0,0,0,1.242-1.482V29.183a1.509,1.509,0,0,0-1.509-1.509,1.488,1.488,0,0,0-.359.048c-.082-1.516-.138-2.663-.138-2.949a18.145,18.145,0,0,1,36.224-1.551c.043.512-.015,2.3-.112,4.479a1.465,1.465,0,0,0-.261-.027,1.509,1.509,0,0,0-1.509,1.509V37.13A1.508,1.508,0,0,0,137.93,38.6c0,.023,0,.037,0,.037.074,0,.145-.008.218-.01.036,0,.071.01.108.01a1.489,1.489,0,0,0,.364-.05,5.365,5.365,0,0,0,2.3-9.776Zm0,0" transform="translate(-80.468 -3.285)" fill="#fa759e"/>
      <path id="Path_252" data-name="Path 252" d="M71.392,400.581a5.883,5.883,0,1,0-11.433,0Zm0,0" transform="translate(-49.111 -322.774)" fill="#f9e109"/>
      <path id="Path_253" data-name="Path 253" d="M45.383,433.891H67.556v4.868H45.383Zm0,0" transform="translate(-37.277 -356.085)" fill="#fa759e"/>
      <path id="Path_254" data-name="Path 254" d="M335.666,400.581a5.883,5.883,0,1,0-11.433,0Zm0,0" transform="translate(-266.388 -322.774)" fill="#f9e109"/>
      <path id="Path_255" data-name="Path 255" d="M45.383,433.891H67.556v3.327H45.383Zm0,0" transform="translate(-37.277 -356.085)" fill="#fa759e"/>
      <path id="Path_256" data-name="Path 256" d="M280.664,433.891h22.173v3.327H280.664Zm0,0" transform="translate(-230.805 -356.085)" fill="#fa759e"/>
      <path id="Path_257" data-name="Path 257" d="M80.116,457.794H6.677a2.645,2.645,0,0,1,0-5.29H80.115a2.645,2.645,0,0,1,0,5.29Zm0,0" transform="translate(-3.328 -371.37)" fill="#0089ef"/>
      <g id="Group_20" data-name="Group 20">
        <path id="Path_258" data-name="Path 258" d="M149.07,374.772a.715.715,0,0,0,.715-.715v-4.014a.715.715,0,0,0-1.43,0v4.014A.715.715,0,0,0,149.07,374.772Zm0,0" transform="translate(-121.944 -303.109)" fill="#3a2c60"/>
        <path id="Path_259" data-name="Path 259" d="M177.872,150.844a1.617,1.617,0,1,0,1.617,1.617A1.617,1.617,0,0,0,177.872,150.844Zm0,0" transform="translate(-144.878 -123.8)" fill="#3a2c60"/>
        <path id="Path_260" data-name="Path 260" d="M257.668,150.844a1.617,1.617,0,1,0,1.617,1.617A1.616,1.616,0,0,0,257.668,150.844Zm0,0" transform="translate(-210.466 -123.8)" fill="#3a2c60"/>
        <path id="Path_261" data-name="Path 261" d="M213.468,184.174a2.557,2.557,0,0,0,2.554-2.553v-1.078a.715.715,0,1,0-1.43,0v1.078a1.124,1.124,0,0,1-2.247,0v-1.078a.715.715,0,1,0-1.43,0v1.078a2.557,2.557,0,0,0,2.554,2.553Zm0,0" transform="translate(-173.37 -147.587)" fill="#3a2c60"/>
        <path id="Path_262" data-name="Path 262" d="M253.9,135.853l3.166.551a.683.683,0,0,0,.124.011.715.715,0,0,0,.122-1.42l-3.166-.551a.715.715,0,1,0-.246,1.409Zm0,0" transform="translate(-208.213 -110.333)" fill="#3a2c60"/>
        <path id="Path_263" data-name="Path 263" d="M172.78,135.028a.716.716,0,0,0-.828-.581l-3.166.551a.715.715,0,0,0,.122,1.42.678.678,0,0,0,.124-.011l3.166-.551A.716.716,0,0,0,172.78,135.028Zm0,0" transform="translate(-138.255 -110.336)" fill="#3a2c60"/>
        <path id="Path_264" data-name="Path 264" d="M209.616,211.659a.715.715,0,1,0-1.139-.864,3.966,3.966,0,0,1-3.012,1.372,3.833,3.833,0,0,1-3.005-1.363.715.715,0,0,0-1.157.841,5.275,5.275,0,0,0,4.162,1.951,5.413,5.413,0,0,0,4.151-1.937Zm0,0" transform="translate(-165.366 -172.771)" fill="#3a2c60"/>
        <path id="Path_265" data-name="Path 265" d="M185.233,345.4a12.708,12.708,0,0,0,1.265,1.388,6.486,6.486,0,1,0,11.512,0,12.517,12.517,0,0,0,1.248-1.365.715.715,0,0,0-1.127-.879,11.383,11.383,0,0,1-.929,1.039,6.467,6.467,0,0,0-9.9,0,11.528,11.528,0,0,1-.945-1.059.715.715,0,0,0-1.129.877Zm7.022-.691a5.056,5.056,0,1,1-5.056,5.056A5.062,5.062,0,0,1,192.254,344.707Zm0,0" transform="translate(-152.156 -281.672)" fill="#3a2c60"/>
        <path id="Path_266" data-name="Path 266" d="M264.367,330.894a.716.716,0,0,0,.975-.269,18.868,18.868,0,0,0,1-2.046.715.715,0,1,0-1.319-.552,17.617,17.617,0,0,1-.925,1.891A.716.716,0,0,0,264.367,330.894Zm0,0" transform="translate(-217.001 -268.856)" fill="#3a2c60"/>
        <path id="Path_267" data-name="Path 267" d="M274.035,307.681a.714.714,0,0,0,.891-.478c.214-.707.4-1.444.551-2.191a.715.715,0,0,0-1.4-.284c-.142.7-.316,1.4-.517,2.062A.714.714,0,0,0,274.035,307.681Zm0,0" transform="translate(-224.826 -249.625)" fill="#3a2c60"/>
        <path id="Path_268" data-name="Path 268" d="M279.072,283.433a.816.816,0,0,0,.082,0,.714.714,0,0,0,.71-.633c.086-.741.142-1.5.167-2.245a.715.715,0,1,0-1.429-.047c-.024.71-.078,1.426-.159,2.128a.717.717,0,0,0,.629.793Zm0,0" transform="translate(-228.862 -229.653)" fill="#3a2c60"/>
        <path id="Path_269" data-name="Path 269" d="M166.42,304.021a.715.715,0,0,0-.559.842c.151.746.336,1.483.548,2.191a.715.715,0,1,0,1.37-.413c-.2-.665-.374-1.359-.516-2.062A.712.712,0,0,0,166.42,304.021Zm0,0" transform="translate(-136.321 -249.503)" fill="#3a2c60"/>
        <path id="Path_270" data-name="Path 270" d="M173,328.44a19.043,19.043,0,0,0,1,2.046.715.715,0,0,0,1.245-.7,17.566,17.566,0,0,1-.923-1.893.716.716,0,1,0-1.321.552Zm0,0" transform="translate(-142.153 -268.742)" fill="#3a2c60"/>
        <path id="Path_271" data-name="Path 271" d="M163.909,283.281c.027,0,.055,0,.083,0a.716.716,0,0,0,.629-.793c-.08-.7-.133-1.416-.157-2.129a.715.715,0,0,0-1.43.047c.025.752.081,1.506.166,2.245A.716.716,0,0,0,163.909,283.281Zm0,0" transform="translate(-134.008 -229.524)" fill="#3a2c60"/>
        <path id="Path_272" data-name="Path 272" d="M76.837,80.4H72.821v-2.62a.715.715,0,0,0-.712-.717H70.151c.022-.216.035-.435.035-.656a6.618,6.618,0,0,0-4.264-6.186V67.551a21.527,21.527,0,0,0-5.794-14.718A.656.656,0,0,0,60,52.7a21.428,21.428,0,0,0-9.294-5.769.689.689,0,0,0-.148-.046,21.194,21.194,0,0,0-3.167-.683A16.973,16.973,0,0,0,56.3,35.609a2.2,2.2,0,0,0,.747.431.7.7,0,0,0,.377.125c.074,0,.144-.008.217-.011.037,0,.071.011.108.011a2.2,2.2,0,0,0,.506-.064A6.106,6.106,0,0,0,61.19,25.286,21.58,21.58,0,0,0,54.721,5.809,21.134,21.134,0,0,0,38.642.05,21.414,21.414,0,0,0,19.115,17.365H13.506a2.779,2.779,0,0,0,0,5.557h5.25a21.566,21.566,0,0,0,.282,2.364,6.107,6.107,0,0,0,2.827,10.8,5.371,5.371,0,0,0,4.616,4.7A16.937,16.937,0,0,0,32.9,46.2a21.167,21.167,0,0,0-3.167.683.7.7,0,0,0-.142.045,21.426,21.426,0,0,0-9.3,5.77.7.7,0,0,0-.127.134A21.525,21.525,0,0,0,14.367,67.55v2.622a6.619,6.619,0,0,0-4.393,6.234c0,.221.013.44.035.656H8.121a.715.715,0,0,0-.712.717V80.4H3.393a3.37,3.37,0,0,0,0,6.739H76.838a3.369,3.369,0,0,0,0-6.739Zm-5.44,0H50.734V78.5H71.4Zm-2.636-3.993a5.1,5.1,0,0,1-.046.656h-10.2a4.979,4.979,0,0,1-.047-.656,5.148,5.148,0,1,1,10.3,0ZM64.5,69.859a6.446,6.446,0,0,0-.884-.067,6.6,6.6,0,0,0-6.573,6.616c0,.221.014.44.035.656H53.829V63.084a9.945,9.945,0,0,1,5.561-8.947A20.108,20.108,0,0,1,64.5,67.551v2.308ZM45.752,46.894v1.3a5.608,5.608,0,1,1-11.216,0v-1.3c.063.022.127.037.19.059.355.122.714.234,1.08.332.042.012.083.025.125.036.418.109.844.2,1.274.274l.154.028q.654.109,1.324.168l.08.006c.456.038.915.062,1.38.062s.924-.024,1.38-.062l.082-.006q.669-.058,1.322-.167l.157-.028c.43-.077.855-.165,1.272-.274.043-.011.086-.025.129-.037.363-.1.721-.209,1.074-.331.064-.022.129-.036.193-.06ZM41.3,16.11H38.984a3.788,3.788,0,0,0-3.771,3.8v1.582H22.755A17.6,17.6,0,0,1,28.251,8.8,17.146,17.146,0,0,1,41.263,4.106,17.487,17.487,0,0,1,57.414,20.05c.018.223.015.737,0,1.439H45.074V19.906a3.788,3.788,0,0,0-3.771-3.8ZM23.325,33.935a.79.79,0,1,1-1.581,0V25.967a.79.79,0,1,1,1.581,0Zm33.637-7.968a.79.79,0,1,1,1.58,0v7.968a.79.79,0,1,1-1.58,0Zm5.1,4.1a4.639,4.639,0,0,1-2.095,3.872V26.153a.557.557,0,0,0,.042.039A4.672,4.672,0,0,1,62.062,30.066Zm-41.9-9.5A20.015,20.015,0,0,1,38.738,1.48,19.748,19.748,0,0,1,53.747,6.857a20.069,20.069,0,0,1,6.027,18.21,2.229,2.229,0,0,0-1.029-1.083c.083-1.977.129-3.56.088-4.054A18.921,18.921,0,0,0,41.355,2.675c-.421-.027-.838-.041-1.256-.041A18.539,18.539,0,0,0,27.275,7.751a19.039,19.039,0,0,0-5.947,13.794c0,.265.045,1.214.111,2.5a2.227,2.227,0,0,0-.969,1.133,20.4,20.4,0,0,1-.311-4.606Zm-7.988-.424A1.341,1.341,0,0,1,13.507,18.8h5.381c-.071.561-.125,1.127-.152,1.7-.016.33-.019.66-.019.989H13.507a1.341,1.341,0,0,1-1.336-1.344Zm6,9.923a4.671,4.671,0,0,1,2.05-3.873.683.683,0,0,0,.1-.094v7.836c0,.017,0,.032,0,.048a4.648,4.648,0,0,1-2.157-3.917Zm5.126,5.956a2.205,2.205,0,0,0,.691-.413,16.886,16.886,0,0,0,1.343,3.324,3.958,3.958,0,0,1-2.034-2.911Zm5.019,4.809H30.3a2.129,2.129,0,1,0,0-1.434H27.261a15.476,15.476,0,0,1-2.511-8.466V22.923H55.537v8.008a15.367,15.367,0,0,1-27.225,9.9ZM15.79,67.551A20.108,20.108,0,0,1,20.9,54.137a9.943,9.943,0,0,1,5.561,8.947.712.712,0,1,0,1.425,0A11.381,11.381,0,0,0,21.932,53.06a20.014,20.014,0,0,1,7.157-4.467c0,.008,0,.016,0,.024a.716.716,0,0,0,.678.75H29.8a.714.714,0,0,0,.711-.683c.009-.185.024-.366.037-.549a19.659,19.659,0,0,1,2.564-.522v.577a7.033,7.033,0,1,0,14.066,0v-.576a19.773,19.773,0,0,1,2.564.522c.013.183.027.365.037.55a.714.714,0,0,0,.71.683h.036a.715.715,0,0,0,.676-.751c0-.008,0-.015,0-.023a20,20,0,0,1,7.157,4.467A11.381,11.381,0,0,0,52.4,63.085V77.064H50.023a.715.715,0,0,0-.712.717V80.4H30.92v-2.62a.715.715,0,0,0-.712-.717H27.883v-2.53a.712.712,0,1,0-1.425,0v2.53H23.083c.022-.216.035-.435.035-.656a6.545,6.545,0,0,0-7.328-6.569ZM11.4,76.408a5.148,5.148,0,1,1,10.3,0,4.979,4.979,0,0,1-.046.656h-10.2a4.979,4.979,0,0,1-.046-.656ZM8.832,78.5H29.495v1.9H8.832Zm68,7.208H3.393a1.936,1.936,0,0,1,0-3.871H76.837a1.936,1.936,0,0,1,0,3.871Zm0,0" transform="translate(-0.046 0.001)" fill="#3a2c60"/>
      </g>
    </g>
    <g id="avatar_1_" data-name="avatar (1)" transform="translate(809 316)">
      <path id="Path_273" data-name="Path 273" d="M100.1,280.008a12.083,12.083,0,0,0-12.083,12.083v24.166h72.5V292.091a12.083,12.083,0,0,0-12.083-12.083Zm0,0" transform="translate(-72.021 -227.768)" fill="#f8664f"/>
      <path id="Path_274" data-name="Path 274" d="M145.407,304.174v-4.531a4.531,4.531,0,0,0-4.531,4.531H121.241a18.125,18.125,0,0,1-18.125-18.125v-6.042H100.1a12.083,12.083,0,0,0-12.083,12.083v24.166h72.5V304.174Zm0,0" transform="translate(-72.021 -227.768)" fill="#cc5144"/>
      <path id="Path_275" data-name="Path 275" d="M247.564,255.112a7.552,7.552,0,0,1-7.552-7.552v-7.552h15.1v7.552A7.552,7.552,0,0,1,247.564,255.112Zm0,0" transform="translate(-195.073 -195.07)" fill="#fcbc04"/>
      <path id="Path_276" data-name="Path 276" d="M240.012,247.56v.257a15.1,15.1,0,0,0,15.1-1.767v-6.042h-15.1Zm0,0" transform="translate(-195.073 -195.043)" fill="#e59730"/>
      <path id="Path_277" data-name="Path 277" d="M182.668,8.008a22.656,22.656,0,0,1,22.656,22.656v9.062a7.552,7.552,0,0,1-7.552,7.552H167.564a7.552,7.552,0,0,1-7.552-7.552V30.664A22.656,22.656,0,0,1,182.668,8.008Zm0,0" transform="translate(-130.219 -6.497)" fill="#c4f236"/>
      <path id="Path_278" data-name="Path 278" d="M172.1,39.726V30.664a22.656,22.656,0,0,1,16.614-21.81,22.164,22.164,0,0,0-6.042-.846,22.656,22.656,0,0,0-22.656,22.656v9.062a7.552,7.552,0,0,0,7.552,7.552h12.083a7.552,7.552,0,0,1-7.552-7.552Zm0,0" transform="translate(-130.107 -6.497)" fill="#a1d51c"/>
      <path id="Path_279" data-name="Path 279" d="M200.012,104.008H230.22v15.1a15.1,15.1,0,0,1-30.208,0Zm0,0" transform="translate(-162.641 -84.576)" fill="#f9e109"/>
      <path id="Path_280" data-name="Path 280" d="M206.053,99.643V95.112a6.041,6.041,0,0,1,6.042-6.042H230.22V84.539h-4.531l-3.021-4.531-2.7,4.531H200.012v15.1a15.1,15.1,0,0,0,15.1,15.1,15.439,15.439,0,0,0,3.021-.3,15.1,15.1,0,0,1-12.083-14.8Zm0,0" transform="translate(-162.641 -65.073)" fill="#fcbc04"/>
      <path id="Path_281" data-name="Path 281" d="M299.033,136.008h6.042a3.02,3.02,0,0,1,3.021,3.021v3.021a3.02,3.02,0,0,1-3.021,3.021h-6.042a3.021,3.021,0,0,1-3.021-3.021v-3.021A3.021,3.021,0,0,1,299.033,136.008Zm0,0" transform="translate(-240.57 -110.528)" fill="#57b7eb"/>
      <path id="Path_282" data-name="Path 282" d="M203.033,136.008h6.042a3.02,3.02,0,0,1,3.021,3.021v3.021a3.02,3.02,0,0,1-3.021,3.021h-6.042a3.021,3.021,0,0,1-3.021-3.021v-3.021A3.021,3.021,0,0,1,203.033,136.008Zm0,0" transform="translate(-162.551 -110.528)" fill="#57b7eb"/>
      <path id="Path_283" data-name="Path 283" d="M222.054,145.07l-6.042-9.062h6.042a3.02,3.02,0,0,1,3.021,3.021v3.021A3.02,3.02,0,0,1,222.054,145.07Zm0,0" transform="translate(-175.542 -110.528)" fill="#aae1f9"/>
      <path id="Path_284" data-name="Path 284" d="M318.054,145.07l-6.042-9.062h6.042a3.02,3.02,0,0,1,3.021,3.021v3.021A3.02,3.02,0,0,1,318.054,145.07Zm0,0" transform="translate(-253.556 -110.528)" fill="#aae1f9"/>
      <path id="Path_285" data-name="Path 285" d="M23.453,258.556l-5.232,3.021-9.818-17a3.021,3.021,0,0,1,5.232-3.021Zm0,0" transform="translate(-6.488 -195.132)" fill="#7ab92d"/>
      <path id="Path_286" data-name="Path 286" d="M70.071,348.749v-.8a19.845,19.845,0,0,0-2.673-9.863l-5.226,3.021a19.937,19.937,0,0,0,7.2,7.235Zm0,0" transform="translate(-50.433 -274.755)" fill="#f9e109"/>
      <path id="Path_287" data-name="Path 287" d="M13.918,241.988a3.021,3.021,0,0,0-5.226,3.021l2.266,3.927,5.226-3.021Zm0,0" transform="translate(-6.771 -195.511)" fill="#fcbc04"/>
      <path id="Path_288" data-name="Path 288" d="M16.063,240.43a3.02,3.02,0,0,1,4.126,1.105l.755,1.308a3.021,3.021,0,0,1-4.126-1.106Zm0,0" transform="translate(-13.029 -195.032)" fill="#f9e109"/>
      <path id="Path_289" data-name="Path 289" d="M36.066,270.3l2.616-1.51,7.552,13.08-2.616,1.51Zm0,0" transform="translate(-29.257 -218.463)" fill="#a1d51c"/>
      <path id="Path_290" data-name="Path 290" d="M65.54,347.385l-.755-1.3-2.613,1.51a19.937,19.937,0,0,0,7.2,7.235l.695.408v-.8a20.291,20.291,0,0,0-.468-4.214,6.044,6.044,0,0,1-4.064-2.84Zm0,0" transform="translate(-50.433 -281.247)" fill="#fcbc04"/>
      <path id="Path_291" data-name="Path 291" d="M138.137,396.166l-5.014-1.873a13.761,13.761,0,0,0-13.11,1.873v6.042h18.125Zm0,0" transform="translate(-97.549 -319.76)" fill="#57b7eb"/>
      <path id="Path_292" data-name="Path 292" d="M24.012,396.166l5.015-1.873a13.759,13.759,0,0,1,13.11,1.873v6.042H24.012Zm0,0" transform="translate(-19.478 -319.76)" fill="#57b7eb"/>
      <path id="Path_293" data-name="Path 293" d="M133.122,394.293a13.761,13.761,0,0,0-13.11,1.873v3.021a13.761,13.761,0,0,1,13.11-1.873l5.014,1.873v-3.021Zm0,0" transform="translate(-97.549 -319.76)" fill="#aae1f9"/>
      <path id="Path_294" data-name="Path 294" d="M29.027,394.293l-5.015,1.873v3.021l5.015-1.873a13.759,13.759,0,0,1,13.11,1.873v-3.021A13.759,13.759,0,0,0,29.027,394.293Zm0,0" transform="translate(-19.478 -319.76)" fill="#aae1f9"/>
      <path id="Path_295" data-name="Path 295" d="M8.012,56.008H29.157V83.195H8.012Zm0,0" transform="translate(-6.499 -45.435)" fill="#aae1f9"/>
      <path id="Path_296" data-name="Path 296" d="M12.543,66.581V56.008H8.012V83.2H29.157V78.664H24.626A12.084,12.084,0,0,1,12.543,66.581Zm0,0" transform="translate(-6.499 -45.435)" fill="#57b7eb"/>
      <g id="Group_21" data-name="Group 21">
        <path id="Path_297" data-name="Path 297" d="M323.033,153.518a1.51,1.51,0,1,1-1.51-1.51A1.51,1.51,0,0,1,323.033,153.518Zm0,0" transform="translate(-260.025 -123.515)" fill="#39519d"/>
        <path id="Path_298" data-name="Path 298" d="M227.033,153.518a1.51,1.51,0,1,1-1.51-1.51A1.51,1.51,0,0,1,227.033,153.518Zm0,0" transform="translate(-182.021 -123.515)" fill="#39519d"/>
        <path id="Path_299" data-name="Path 299" d="M385.522,384.008a1.51,1.51,0,0,0-1.51,1.51v15.1a1.51,1.51,0,0,0,3.021,0v-15.1A1.51,1.51,0,0,0,385.522,384.008Zm0,0" transform="translate(-312.137 -312.133)" fill="#39519d"/>
        <path id="Path_300" data-name="Path 300" d="M156.125,51.008H141.152V48.323a16.684,16.684,0,0,0,5.675-6.315h.314a8.992,8.992,0,0,0,8.984-9v-9a23.956,23.956,0,1,0-47.913,0v9a8.992,8.992,0,0,0,8.984,9h.314a16.7,16.7,0,0,0,5.675,6.315v2.685H108.213a13.371,13.371,0,0,0-9.462,3.915,1.5,1.5,0,1,0,2.1,2.085,10.47,10.47,0,0,1,7.366-3h15.108a8.981,8.981,0,0,0,17.7,0h15.107a10.49,10.49,0,0,1,10.481,10.5v24a1.5,1.5,0,1,0,2.995,0v-24a13.487,13.487,0,0,0-13.475-13.5Zm-44.918-18v-9a20.962,20.962,0,1,1,41.924,0v9a6,6,0,0,1-5.105,5.91,16.533,16.533,0,0,0,.613-4.41v-15a1.5,1.5,0,0,0-1.5-1.5h-3.683l-2.56-3.825a1.5,1.5,0,0,0-2.485,0l-2.561,3.825h-8.175a1.5,1.5,0,0,0,0,3h8.984a1.5,1.5,0,0,0,1.243-.675l1.752-2.625,1.752,2.625a1.5,1.5,0,0,0,1.242.675h2.995v3.27a4.479,4.479,0,0,0-1.5-.27h-4.492a1.5,1.5,0,0,0,0,3h4.492a1.5,1.5,0,0,1,1.5,1.5v3a1.5,1.5,0,0,1-1.5,1.5h-5.989a1.5,1.5,0,0,1-1.5-1.5v-3a1.5,1.5,0,1,0-2.995,0h-2.995a4.5,4.5,0,0,0-4.492-4.5h-5.989a4.485,4.485,0,0,0-1.5.27v-3.27h2.995a1.5,1.5,0,0,0,0-3H117.2a1.5,1.5,0,0,0-1.5,1.5v15a16.534,16.534,0,0,0,.614,4.41A6,6,0,0,1,111.207,33.008Zm7.486-4.5a1.5,1.5,0,0,1,1.5-1.5h5.989a1.5,1.5,0,0,1,1.5,1.5v3a1.5,1.5,0,0,1-1.5,1.5h-5.989a1.5,1.5,0,0,1-1.5-1.5Zm0,7.245a4.5,4.5,0,0,0,1.5.255h5.989a4.5,4.5,0,0,0,4.492-4.5h2.995a4.5,4.5,0,0,0,4.492,4.5h5.989a4.492,4.492,0,0,0,1.5-.255,13.473,13.473,0,0,1-26.831,0Zm13.475,22.755a6,6,0,0,1-5.989-6v-2.64a16.3,16.3,0,0,0,11.978,0v2.64A5.994,5.994,0,0,1,132.169,58.508Zm0,0" transform="translate(-79.601 -0.008)" fill="#39519d"/>
        <path id="Path_301" data-name="Path 301" d="M43.8,269.753H24.166v-3.746a12.187,12.187,0,0,1,11.071-1.254l5.015,1.888a1.515,1.515,0,1,0,1.057-2.839l-5.06-1.873a15.1,15.1,0,0,0-13.594,1.51,16.678,16.678,0,0,0-1.51-.861v-.695a21.432,21.432,0,0,0-2.87-10.573L8.458,234.258A4.534,4.534,0,1,0,.6,238.79l2.266,3.927,7.552,13.08a21.344,21.344,0,0,0,4.229,5.151,15.114,15.114,0,0,0-5.589.982L4,263.8a1.511,1.511,0,0,0-.982,1.42v4.531H1.51a1.51,1.51,0,1,0,0,3.021H43.8a1.51,1.51,0,1,0,0-3.021ZM16.358,254.12A18.447,18.447,0,0,1,18,259.844a18.12,18.12,0,0,1-4.154-4.289Zm-4.078-1.148L6.238,242.566l2.628-1.51,6.042,10.467Zm-8.5-17.762a1.51,1.51,0,0,1,2.069.559l1.51,2.613-2.628,1.51-1.51-2.613a1.511,1.511,0,0,1,.558-2.069Zm2.266,31.054,4.033-1.51a12.185,12.185,0,0,1,11.071,1.254v3.746H6.041Zm0,0" transform="translate(0.003 -188.815)" fill="#39519d"/>
        <path id="Path_302" data-name="Path 302" d="M1.522,78.216H22.668a1.51,1.51,0,0,0,1.51-1.51V72.174a1.51,1.51,0,0,0-3.021,0V75.2H3.033V51.029H21.157v15.1a1.51,1.51,0,1,0,3.021,0V49.518a1.51,1.51,0,0,0-1.51-1.51H1.522a1.51,1.51,0,0,0-1.51,1.51V76.705a1.51,1.51,0,0,0,1.51,1.51Zm0,0" transform="translate(-0.009 -38.946)" fill="#39519d"/>
        <path id="Path_303" data-name="Path 303" d="M42.584,120.008H33.522a1.51,1.51,0,1,0,0,3.021h9.062a1.51,1.51,0,1,0,0-3.021Zm0,0" transform="translate(-25.967 -97.513)" fill="#39519d"/>
        <path id="Path_304" data-name="Path 304" d="M42.584,152.008H33.522a1.51,1.51,0,1,0,0,3.021h9.062a1.51,1.51,0,1,0,0-3.021Zm0,0" transform="translate(-25.967 -123.515)" fill="#39519d"/>
        <path id="Path_305" data-name="Path 305" d="M55.564,88.008H49.522a1.51,1.51,0,1,0,0,3.021h6.042a1.51,1.51,0,1,0,0-3.021Zm0,0" transform="translate(-38.947 -71.512)" fill="#39519d"/>
        <path id="Path_306" data-name="Path 306" d="M49.522,19.029H60.095a1.51,1.51,0,1,0,0-3.021H49.522a1.51,1.51,0,1,0,0,3.021Zm0,0" transform="translate(-38.947 -12.987)" fill="#39519d"/>
      </g>
    </g>
  </g>
</svg>
