<svg xmlns="http://www.w3.org/2000/svg" width="193" height="180" viewBox="0 0 193 180">
  <g id="gift" transform="translate(0 0)">
    <g id="Group_34" data-name="Group 34" transform="translate(21.963 3.05)">
      <path id="Path_472" data-name="Path 472" d="M120.058,58.52c-15.209-16.845-38.62-39.739-46.912-31.373-12.679,12.793-26.034,47.5,0,47.5h46.912Z" transform="translate(-58.219 -25.366)" fill="#ffdb57"/>
      <path id="Path_473" data-name="Path 473" d="M289.861,58.52c15.208-16.845,38.62-39.739,46.912-31.373,12.679,12.793,26.034,47.5,0,47.5H289.861Z" transform="translate(-202.626 -25.366)" fill="#ffdb57"/>
    </g>
    <rect id="Rectangle_13" data-name="Rectangle 13" width="160.676" height="94.628" transform="translate(16.161 82.324)" fill="#f7434c"/>
    <rect id="Rectangle_14" data-name="Rectangle 14" width="160.676" height="12.199" transform="translate(16.161 82.381)" fill="#db2e37"/>
    <rect id="Rectangle_15" data-name="Rectangle 15" width="186.901" height="30.095" transform="translate(3.05 52.302)" fill="#f7434c"/>
    <g id="Group_35" data-name="Group 35" transform="translate(76.124 52.229)">
      <rect id="Rectangle_16" data-name="Rectangle 16" width="40.753" height="30.095" transform="translate(0 0)" fill="#ffdb57"/>
      <rect id="Rectangle_17" data-name="Rectangle 17" width="31.16" height="94.628" transform="translate(4.798 30.095)" fill="#ffdb57"/>
    </g>
    <rect id="Rectangle_18" data-name="Rectangle 18" width="31.16" height="12.134" transform="translate(80.922 82.381)" fill="#f5ba3d"/>
    <g id="Group_36" data-name="Group 36" transform="translate(21.965 26.121)">
      <path id="Path_474" data-name="Path 474" d="M77.849,89.715c-11.5-5.208-16.307-3.15-18.292-.15-3.268,12-1.177,23.172,13.591,23.172H107.86S99.182,99.371,77.849,89.715Z" transform="translate(-58.224 -86.521)" fill="#ef9325"/>
      <path id="Path_475" data-name="Path 475" d="M352.213,89.715c11.5-5.208,16.307-3.15,18.291-.15,3.268,12,1.177,23.172-13.591,23.172H322.2S330.88,99.371,352.213,89.715Z" transform="translate(-222.768 -86.521)" fill="#ef9325"/>
    </g>
    <rect id="Rectangle_19" data-name="Rectangle 19" width="25.548" height="19.148" transform="translate(83.727 33.165)" fill="#f5ba3d"/>
    <path id="Path_476" data-name="Path 476" d="M189.953,66.543H170.81c.224-.294.429-.592.622-.891l.016-.026c.2-.311.383-.623.551-.935l.031-.057c.181-.337.345-.673.492-1l.007-.016c.049-.11.1-.219.142-.328.052-.126.1-.259.145-.386.071-.183.142-.366.207-.554.054-.155.1-.314.152-.473.077-.245.152-.492.22-.745.022-.086.043-.173.064-.259a27.932,27.932,0,0,0-.106-12.318l-.01-.047c-.1-.478-.2-.96-.321-1.449-.054-.227-.116-.458-.174-.687-.063-.247-.12-.492-.188-.742,0-.014-.011-.026-.014-.04a55.068,55.068,0,0,0-1.73-5.271c-2.988-7.789-7.7-15.4-12.612-20.352a9.3,9.3,0,0,0-6.988-2.68c-8.621.2-22.357,10.413-40.858,30.361a3.04,3.04,0,0,0-1.193-.243H83.735a3.04,3.04,0,0,0-1.193.243C64.04,27.7,50.3,17.486,41.683,17.285a9.285,9.285,0,0,0-6.988,2.68c-4.909,4.954-9.624,12.562-12.611,20.352a55.182,55.182,0,0,0-1.729,5.268c0,.015-.011.028-.015.043-.074.272-.136.538-.2.807-.052.2-.107.409-.155.611-1.274,5.3-1.412,9.969-.438,13.83.021.084.04.169.062.251.068.255.144.5.222.752.049.156.1.313.15.466.066.189.137.375.209.559.049.127.092.259.143.383.045.108.093.217.141.326l.009.02c.147.331.311.666.491,1l.032.06c.168.311.351.622.551.933l.017.026c.193.3.4.6.622.891H3.047A3.047,3.047,0,0,0,0,69.591V99.666a3.047,3.047,0,0,0,3.047,3.048H13.1v13.577a3.047,3.047,0,1,0,6.095,0V102.714h58.69v35.928a3.047,3.047,0,1,0,6.095,0V102.714h25.041v88.472H83.979V150.834a3.047,3.047,0,1,0-6.095,0v40.352H19.2v-62.7a3.047,3.047,0,1,0-6.095,0v65.751a3.047,3.047,0,0,0,3.047,3.048h160.7a3.047,3.047,0,0,0,3.047-3.048V177.618a3.047,3.047,0,1,0-6.095,0v13.568H115.115V102.715h58.69v62.713a3.047,3.047,0,1,0,6.095,0V102.715h10.053A3.047,3.047,0,0,0,193,99.667V69.591A3.047,3.047,0,0,0,189.953,66.543ZM167.924,57.1c0,.057-.01.114-.015.171-.023.238-.053.471-.086.7-.018.125-.035.251-.056.372-.025.152-.056.3-.086.449-.035.172-.068.344-.109.51-.019.077-.041.15-.061.226a9.9,9.9,0,0,1-1.167,2.765,7.891,7.891,0,0,1-.836,1.093c-.024.026-.048.05-.072.075-.121.129-.247.253-.377.374-.061.057-.124.112-.187.167-.088.077-.179.15-.271.224s-.193.153-.294.225c-.035.026-.072.049-.108.074a11.933,11.933,0,0,1-5.472,1.869l-.224.025c-.181.019-.364.035-.549.05-.149.011-.3.021-.453.029s-.275.016-.416.022c-.309.011-.623.019-.946.019h-28.2A78.807,78.807,0,0,1,152.7,49.353c7.114-3.22,12.231-3.787,14.195-1.605A28.691,28.691,0,0,1,167.924,57.1ZM86.783,53.5h19.433V66.537H86.783ZM26.106,47.748c1.965-2.181,7.083-1.614,14.195,1.606A78.806,78.806,0,0,1,65.062,66.537h-28.2c-.323,0-.637-.008-.946-.019-.141-.005-.278-.014-.416-.022s-.3-.018-.453-.029c-.185-.015-.369-.031-.549-.05l-.224-.025A11.933,11.933,0,0,1,28.8,64.522c-.036-.025-.073-.048-.108-.074-.1-.073-.2-.15-.294-.225s-.183-.147-.271-.224c-.063-.055-.126-.11-.187-.167-.13-.121-.256-.245-.377-.374-.024-.025-.049-.049-.072-.075a7.936,7.936,0,0,1-.836-1.093,9.875,9.875,0,0,1-1.165-2.759c-.021-.078-.044-.154-.063-.233-.04-.164-.073-.334-.108-.5-.031-.152-.062-.3-.088-.458-.02-.119-.037-.242-.054-.364-.033-.235-.064-.471-.087-.714-.005-.052-.01-.105-.015-.158A28.632,28.632,0,0,1,26.106,47.748ZM73.092,96.619h-67V72.639h67ZM73.1,66.537C70.217,62.742,60.914,52,42.814,43.8c-4.418-2-9.665-3.72-14.178-3.4A53.644,53.644,0,0,1,39.025,24.256a3.038,3.038,0,0,1,2.379-.878l.138,0c6.994.163,21.233,11.54,39.146,31.259v11.9H73.1Zm40.709,30.082H79.186V72.639h34.627v23.98Zm-1.5-30.082v-11.9c17.913-19.719,32.153-31.1,39.146-31.259a3.11,3.11,0,0,1,2.518.877A53.64,53.64,0,0,1,164.364,40.4c-4.513-.323-9.76,1.4-14.178,3.4-18.1,8.195-27.4,18.941-30.29,22.736h-7.585Zm74.594,30.082h-67V72.639h67v23.98Z" transform="translate(0 -17.282)"/>
  </g>
</svg>
