<svg xmlns="http://www.w3.org/2000/svg" width="225" height="252" viewBox="0 0 225 252">
  <g id="telescope" transform="translate(0 0)">
    <path id="Path_398" data-name="Path 398" d="M8.748,320.337a4.951,4.951,0,0,0-2.959,6.346L11.325,341.9a4.952,4.952,0,0,0,9.3-3.387L15.094,323.3a4.952,4.952,0,0,0-6.346-2.959Zm0,0" transform="translate(-3.006 -162.656)" fill="#acdef9"/>
    <path id="Path_399" data-name="Path 399" d="M25.547,324.7l10.468-3.81,4.83,13.27-10.468,3.81Zm0,0" transform="translate(-13.108 -163.038)" fill="#55acd5"/>
    <path id="Path_400" data-name="Path 400" d="M182.589,214a4.111,4.111,0,0,0-2.189,5.161l6.038,16.589a12.067,12.067,0,0,1,14.854,5.82l79.683-22.8-15.234-41.854Zm0,0" transform="translate(-87.784 -90.087)" fill="#6d6c6b"/>
    <path id="Path_401" data-name="Path 401" d="M373.888,215.05a4.953,4.953,0,0,1-6.346-2.961l-15.8-43.423a4.952,4.952,0,0,1,9.3-3.387L376.849,208.7a4.955,4.955,0,0,1-2.961,6.348Zm0,0" transform="translate(-174.066 -82.488)" fill="#6d6c6b"/>
    <path id="Path_402" data-name="Path 402" d="M47.551,286.733A3.1,3.1,0,0,0,45.7,290.7a0,0,0,0,0,0,0l5.576,15.323a3.1,3.1,0,0,0,3.971,1.852l55.791-20.306a12.05,12.05,0,0,1,7.593-8.465L112.766,263Zm0,0" transform="translate(-23.162 -133.783)" fill="#6d6c6b"/>
    <path id="Path_403" data-name="Path 403" d="M25.547,324.7l10.468-3.81,4.83,13.27-10.468,3.81Zm0,0" transform="translate(-13.108 -163.038)" fill="#55acd5"/>
    <path id="Path_404" data-name="Path 404" d="M182.589,214a4.111,4.111,0,0,0-2.189,5.161l6.038,16.589a12.067,12.067,0,0,1,14.854,5.82l79.683-22.8-15.234-41.854Zm0,0" transform="translate(-87.784 -90.087)" fill="#898989"/>
    <path id="Path_405" data-name="Path 405" d="M373.888,215.05a4.953,4.953,0,0,1-6.346-2.961l-15.8-43.423a4.952,4.952,0,0,1,9.3-3.387L376.849,208.7a4.955,4.955,0,0,1-2.961,6.348Zm0,0" transform="translate(-174.066 -82.488)" fill="#afaeae"/>
    <path id="Path_406" data-name="Path 406" d="M47.551,286.733A3.1,3.1,0,0,0,45.7,290.7a0,0,0,0,0,0,0l5.576,15.323a3.1,3.1,0,0,0,3.971,1.852l55.791-20.306a12.05,12.05,0,0,1,7.593-8.465L112.766,263Zm0,0" transform="translate(-23.162 -133.783)" fill="#6d6c6b"/>
    <path id="Path_407" data-name="Path 407" d="M200.952,306.046a12.066,12.066,0,1,1-12.066-12.066A12.065,12.065,0,0,1,200.952,306.046Zm0,0" transform="translate(-87.884 -149.407)" fill="#afaeae"/>
    <path id="Path_408" data-name="Path 408" d="M149.093,332.418,117.65,412.292a4.951,4.951,0,0,0,9.213,3.628l30.9-78.5a12.092,12.092,0,0,1-8.673-5Zm0,0" transform="translate(-58.302 -169.54)" fill="#acdef9"/>
    <path id="Path_409" data-name="Path 409" d="M243.555,412.29l-31.443-79.876a12.075,12.075,0,0,1-8.671,5l30.9,78.5a4.951,4.951,0,1,0,9.214-3.628Zm0,0" transform="translate(-100.932 -169.538)" fill="#acdef9"/>
    <path id="Path_410" data-name="Path 410" d="M196.112,426.857a4.95,4.95,0,1,1,4.952-4.952A4.95,4.95,0,0,1,196.112,426.857Zm0,0" transform="translate(-95.096 -212.118)" fill="#e9e9ea"/>
    <path id="Path_411" data-name="Path 411" d="M298.794,122.378V57.463a1.646,1.646,0,0,0-1.646-1.646h-20.99a1.646,1.646,0,0,0-1.646,1.646v75.744Zm0,0" transform="translate(-136.302 -28.112)" fill="#ea4647"/>
    <path id="Path_412" data-name="Path 412" d="M249.874,173.545V135.91H227.24a1.646,1.646,0,0,0-1.646,1.646v46.82Zm0,0" transform="translate(-112.057 -69.146)" fill="#ffae2c"/>
    <path id="Path_413" data-name="Path 413" d="M180.839,220.237l20.116-8.971V189.3H178.32a1.644,1.644,0,0,0-1.644,1.646v35.714l2.152-.783-.176-.483A4.112,4.112,0,0,1,180.839,220.237Zm0,0" transform="translate(-87.811 -96.262)" fill="#fcd770"/>
    <path id="Path_414" data-name="Path 414" d="M152.032,244.593V224.9H129.4a1.646,1.646,0,0,0-1.646,1.646v26.88Zm0,0" transform="translate(-63.564 -114.32)" fill="#55acd5"/>
    <path id="Path_415" data-name="Path 415" d="M103.11,265.381V248.633H80.478a1.644,1.644,0,0,0-1.646,1.644V274.22Zm0,0" transform="translate(-39.316 -126.368)" fill="#6dcc6d"/>
    <path id="Path_416" data-name="Path 416" d="M181.618,8.855a10.966,10.966,0,0,1-8.7-8.7.2.2,0,0,0-.386,0,10.964,10.964,0,0,1-8.7,8.7.2.2,0,0,0,0,.386,10.961,10.961,0,0,1,8.7,8.7.2.2,0,0,0,.239.147.2.2,0,0,0,.147-.147,10.964,10.964,0,0,1,8.7-8.7.2.2,0,0,0,0-.386Zm0,0" transform="translate(-81.408 -0.001)" fill="#ffcd29"/>
    <path id="Path_417" data-name="Path 417" d="M431.129,184.694h-8.6a2.476,2.476,0,1,1,0-4.952h8.607a2.476,2.476,0,1,1,0,4.952Zm0,0" transform="translate(-208.607 -91.286)" fill="#60bae2"/>
    <path id="Path_418" data-name="Path 418" d="M431.195,184.631a2.477,2.477,0,0,1-2.476-2.476v-8.6a2.476,2.476,0,1,1,4.952,0v8.6A2.477,2.477,0,0,1,431.195,184.631Zm0,0" transform="translate(-212.975 -86.91)" fill="#60bae2"/>
    <path id="Path_419" data-name="Path 419" d="M136.7,101.948h-8.6a2.476,2.476,0,0,1,0-4.952h8.6a2.476,2.476,0,1,1,0,4.952Zm0,0" transform="translate(-62.557 -49.262)" fill="#60bae2"/>
    <path id="Path_420" data-name="Path 420" d="M136.758,101.892a2.477,2.477,0,0,1-2.476-2.476v-8.6a2.476,2.476,0,0,1,4.952,0v8.609A2.477,2.477,0,0,1,136.758,101.892Zm0,0" transform="translate(-66.895 -44.877)" fill="#60bae2"/>
    <path id="Path_421" data-name="Path 421" d="M398.167,161.913a2.293,2.293,0,0,1-.487-.05,2.51,2.51,0,0,1-.459-.138,2.628,2.628,0,0,1-.432-.229,2.434,2.434,0,0,1-.682-.682,2.531,2.531,0,0,1-.366-.892,2.261,2.261,0,0,1-.049-.485,2.476,2.476,0,0,1,.721-1.747,2.334,2.334,0,0,1,.809-.539,2.493,2.493,0,0,1,1.89,0,2.714,2.714,0,0,1,.426.227,2.31,2.31,0,0,1,.376.312,2.574,2.574,0,0,1,.31.37,2.976,2.976,0,0,1,.229.432,2.5,2.5,0,0,1,.138.46,2.419,2.419,0,0,1,.049.485,2.484,2.484,0,0,1-.727,1.755,2.384,2.384,0,0,1-.376.306,2.722,2.722,0,0,1-.426.227,2.482,2.482,0,0,1-.942.188Zm0,0" transform="translate(-196.341 -79.718)" fill="#ffcd29"/>
    <path id="Path_422" data-name="Path 422" d="M223.073,45.454a2.673,2.673,0,0,1-.481-.045,2.443,2.443,0,0,1-.465-.145,2.311,2.311,0,0,1-.427-.227,2.279,2.279,0,0,1-.376-.306,2.385,2.385,0,0,1-.306-.376,2.432,2.432,0,0,1-.229-.427,2.4,2.4,0,0,1-.142-1.431,2.629,2.629,0,0,1,.142-.465,2.486,2.486,0,0,1,.229-.425,2.385,2.385,0,0,1,.306-.376,2.291,2.291,0,0,1,.376-.308,2.434,2.434,0,0,1,.427-.227,2.585,2.585,0,0,1,.465-.143,2.453,2.453,0,0,1,.966,0,2.536,2.536,0,0,1,.465.143,2.367,2.367,0,0,1,.427.227,2.471,2.471,0,0,1,.694,3.422,2.519,2.519,0,0,1-1.586,1.064,2.7,2.7,0,0,1-.485.045Zm0,0" transform="translate(-109.737 -20.401)" fill="#6dcc6d"/>
    <g id="Group_31" data-name="Group 31" transform="translate(0 25.222)">
      <path id="Path_423" data-name="Path 423" d="M186.314,318.051a14.563,14.563,0,1,1,4.983-.884A14.565,14.565,0,0,1,186.314,318.051Zm0-24.139a9.585,9.585,0,1,0,9.016,6.307,9.585,9.585,0,0,0-9.016-6.307Zm0,0" transform="translate(-85.167 -171.989)" fill="#231f20"/>
      <path id="Path_424" data-name="Path 424" d="M198.777,241.53a2.481,2.481,0,0,1-2.208-1.348,9.592,9.592,0,0,0-11.8-4.62,2.483,2.483,0,0,1-3.182-1.483l-6.038-16.589a6.614,6.614,0,0,1,3.509-8.277l83.154-37.085a2.483,2.483,0,0,1,3.279,1.254c.023.054.047.109.066.165L280.8,215.4a2.479,2.479,0,0,1-1.483,3.18,1.672,1.672,0,0,1-.167.054l-79.685,22.8a2.472,2.472,0,0,1-.682.1Zm-10.745-11.509a14.594,14.594,0,0,1,11.878,6.121L275.217,214.6l-13.411-36.854-80.723,36a1.636,1.636,0,0,0-.869,2.046l5.262,14.456a14.66,14.66,0,0,1,2.555-.225Zm0,0" transform="translate(-85.27 -112.605)" fill="#231f20"/>
      <path id="Path_425" data-name="Path 425" d="M369.645,215.241a7.448,7.448,0,0,1-6.98-4.9L346.86,166.923a7.433,7.433,0,0,1,13.969-5.086l15.8,43.425a7.433,7.433,0,0,1-4.438,9.529h0a7.429,7.429,0,0,1-2.542.45Zm-15.8-53.325a2.469,2.469,0,0,0-2.466,2.472,2.443,2.443,0,0,0,.149.841l15.806,43.425a2.469,2.469,0,0,0,4.663-1.627c-.008-.019-.016-.041-.023-.062l-15.806-43.431a2.471,2.471,0,0,0-2.323-1.625Zm0,0" transform="translate(-171.52 -104.921)" fill="#231f20"/>
      <path id="Path_426" data-name="Path 426" d="M13.454,345.117a7.446,7.446,0,0,1-6.98-4.9L.937,325.009a7.431,7.431,0,0,1,4.44-9.528.006.006,0,0,1,0,0,7.445,7.445,0,0,1,9.53,4.442l5.534,15.216a7.444,7.444,0,0,1-6.99,9.979ZM7.92,320a2.443,2.443,0,0,0-.841.149A2.469,2.469,0,0,0,5.6,323.314l5.535,15.212a2.469,2.469,0,0,0,4.642-1.687l-5.537-15.212A2.47,2.47,0,0,0,7.92,320Zm-1.689-2.183" transform="translate(-0.485 -185.285)" fill="#231f20"/>
      <path id="Path_427" data-name="Path 427" d="M51.67,308.028a5.586,5.586,0,0,1-5.239-3.674l-5.576-15.323a5.585,5.585,0,0,1,3.333-7.147L109.4,258.147a2.48,2.48,0,0,1,3.182,1.481v0l5.863,16.106a2.482,2.482,0,0,1-1.483,3.176,9.572,9.572,0,0,0-6.032,6.728,2.48,2.48,0,0,1-1.561,1.739l-55.791,20.3a5.525,5.525,0,0,1-1.908.345Zm-5.784-21.485a.615.615,0,0,0-.366.789L51.1,302.656a.615.615,0,0,0,.785.37l0,0L106.5,283.147A14.525,14.525,0,0,1,113,275.3l-4.236-11.643Zm0,0" transform="translate(-20.648 -156.379)" fill="#231f20"/>
      <path id="Path_428" data-name="Path 428" d="M27.87,337.929a2.483,2.483,0,0,1-2.332-1.634L20.7,323.026a2.478,2.478,0,0,1,1.483-3.176l10.468-3.812a2.483,2.483,0,0,1,3.182,1.483l4.828,13.27a2.478,2.478,0,0,1-1.483,3.176l-10.468,3.81A2.448,2.448,0,0,1,27.87,337.929ZM26.222,323.66l3.131,8.6,5.8-2.113-3.131-8.6Zm0,0" transform="translate(-10.593 -185.666)" fill="#231f20"/>
      <path id="Path_429" data-name="Path 429" d="M198.777,241.53a2.481,2.481,0,0,1-2.208-1.348,9.592,9.592,0,0,0-11.8-4.62,2.483,2.483,0,0,1-3.182-1.483l-6.038-16.589a6.614,6.614,0,0,1,3.509-8.277l83.154-37.085a2.483,2.483,0,0,1,3.279,1.254c.023.054.047.109.066.165L280.8,215.4a2.479,2.479,0,0,1-1.483,3.18,1.672,1.672,0,0,1-.167.054l-79.685,22.8a2.472,2.472,0,0,1-.682.1Zm-10.745-11.509a14.594,14.594,0,0,1,11.878,6.121L275.217,214.6l-13.411-36.854-80.723,36a1.636,1.636,0,0,0-.869,2.046l5.262,14.456a14.66,14.66,0,0,1,2.555-.225Zm0,0" transform="translate(-85.27 -112.605)" fill="#231f20"/>
      <path id="Path_430" data-name="Path 430" d="M369.645,215.241a7.448,7.448,0,0,1-6.98-4.9L346.86,166.923a7.433,7.433,0,0,1,13.969-5.086l15.8,43.425a7.433,7.433,0,0,1-4.438,9.529h0a7.429,7.429,0,0,1-2.542.45Zm-15.8-53.325a2.469,2.469,0,0,0-2.466,2.472,2.443,2.443,0,0,0,.149.841l15.806,43.425a2.469,2.469,0,0,0,4.663-1.627c-.008-.019-.016-.041-.023-.062l-15.806-43.431a2.471,2.471,0,0,0-2.323-1.625Zm0,0" transform="translate(-171.52 -104.921)" fill="#231f20"/>
      <path id="Path_431" data-name="Path 431" d="M13.454,345.117a7.446,7.446,0,0,1-6.98-4.9L.937,325.009a7.431,7.431,0,0,1,4.44-9.528.006.006,0,0,1,0,0,7.445,7.445,0,0,1,9.53,4.442l5.534,15.216a7.444,7.444,0,0,1-6.99,9.979ZM7.92,320a2.443,2.443,0,0,0-.841.149A2.469,2.469,0,0,0,5.6,323.314l5.535,15.212a2.469,2.469,0,0,0,4.642-1.687l-5.537-15.212A2.47,2.47,0,0,0,7.92,320Zm-1.689-2.183" transform="translate(-0.485 -185.285)" fill="#231f20"/>
      <path id="Path_432" data-name="Path 432" d="M51.67,308.028a5.586,5.586,0,0,1-5.239-3.674l-5.576-15.323a5.585,5.585,0,0,1,3.333-7.147L109.4,258.147a2.48,2.48,0,0,1,3.182,1.481v0l5.863,16.106a2.482,2.482,0,0,1-1.483,3.176,9.572,9.572,0,0,0-6.032,6.728,2.48,2.48,0,0,1-1.561,1.739l-55.791,20.3a5.525,5.525,0,0,1-1.908.345Zm-5.784-21.485a.615.615,0,0,0-.366.789L51.1,302.656a.615.615,0,0,0,.785.37l0,0L106.5,283.147A14.525,14.525,0,0,1,113,275.3l-4.236-11.643Zm0,0" transform="translate(-20.648 -156.379)" fill="#231f20"/>
      <path id="Path_433" data-name="Path 433" d="M119.733,419.021a7.435,7.435,0,0,1-6.908-10.156l31.443-79.876a2.481,2.481,0,0,1,4.328-.533,9.588,9.588,0,0,0,6.891,3.971,2.477,2.477,0,0,1,2.071,3.376l-30.9,78.507a7.443,7.443,0,0,1-6.926,4.711Zm27.745-84.638-30.035,76.3a2.47,2.47,0,0,0,4.6,1.811l29.829-75.779a14.61,14.61,0,0,1-4.392-2.33Zm0,0" transform="translate(-55.677 -192.243)" fill="#231f20"/>
      <path id="Path_434" data-name="Path 434" d="M236.431,419.023a7.447,7.447,0,0,1-6.916-4.715l-30.9-78.5a2.482,2.482,0,0,1,1.406-3.217,2.519,2.519,0,0,1,.667-.159,9.6,9.6,0,0,0,6.887-3.971,2.48,2.48,0,0,1,4.329.531l31.443,79.876a7.443,7.443,0,0,1-6.916,10.154ZM204.3,336.712l29.831,75.779a2.469,2.469,0,0,0,4.6-1.809l-30.037-76.294a14.451,14.451,0,0,1-3.944,2.171c-.145.054-.295.107-.446.155Zm0,0" transform="translate(-98.19 -192.245)" fill="#231f20"/>
      <path id="Path_435" data-name="Path 435" d="M193.6,426.826a7.429,7.429,0,1,1,7.434-7.433A7.429,7.429,0,0,1,193.6,426.826Zm0-9.9a2.468,2.468,0,1,0,2.472,2.466,2.416,2.416,0,0,0-.894-1.9,2.481,2.481,0,0,0-1.582-.568Zm0,0" transform="translate(-92.44 -234.484)" fill="#231f20"/>
      <path id="Path_436" data-name="Path 436" d="M207.851,416.937a2.482,2.482,0,0,1-1.3-4.6l9.919-6.109a2.482,2.482,0,0,1,2.6,4.227l-9.919,6.109A2.462,2.462,0,0,1,207.851,416.937Zm0,0" transform="translate(-101.944 -231.349)" fill="#231f20"/>
      <path id="Path_437" data-name="Path 437" d="M179.314,416.934a2.474,2.474,0,0,1-1.3-.368l-9.919-6.113a2.481,2.481,0,1,1,2.6-4.225l9.917,6.107a2.481,2.481,0,0,1-1.3,4.6Zm0,0" transform="translate(-82.902 -231.346)" fill="#231f20"/>
      <path id="Path_438" data-name="Path 438" d="M271.994,133.169a2.482,2.482,0,0,1-2.482-2.482V54.943a4.131,4.131,0,0,1,4.128-4.128h20.99a4.132,4.132,0,0,1,4.128,4.128v64.915a2.479,2.479,0,0,1-1.472,2.267l-24.28,10.829a2.5,2.5,0,0,1-1.012.215Zm2.482-77.39v71.085l19.319-8.616V55.78Zm21.8,64.08" transform="translate(-133.52 -50.816)" fill="#231f20"/>
      <path id="Path_439" data-name="Path 439" d="M223.072,184.336a2.481,2.481,0,0,1-2.482-2.482V135.036a4.133,4.133,0,0,1,4.128-4.13h22.634a2.482,2.482,0,0,1,2.482,2.482v37.637a2.479,2.479,0,0,1-1.472,2.267L224.08,184.121A2.479,2.479,0,0,1,223.072,184.336Zm2.482-48.464v42.159l19.319-8.614V135.872Zm21.8,35.156" transform="translate(-109.328 -91.633)" fill="#231f20"/>
      <path id="Path_440" data-name="Path 440" d="M174.15,226.628a2.482,2.482,0,0,1-2.482-2.482V188.432a4.137,4.137,0,0,1,4.13-4.128h22.634a2.482,2.482,0,0,1,2.482,2.482V208.75a2.482,2.482,0,0,1-1.472,2.267l-20.118,8.969a1.636,1.636,0,0,0-.869,2.045l.176.483a2.481,2.481,0,0,1-1.489,3.176l-2.152.783A2.449,2.449,0,0,1,174.15,226.628Zm2.482-37.36V215.8a6.707,6.707,0,0,1,.675-.347l18.646-8.316V189.268Zm0,0" transform="translate(-85.136 -118.799)" fill="#231f20"/>
      <path id="Path_441" data-name="Path 441" d="M125.232,253.392a2.482,2.482,0,0,1-2.482-2.482V224.03a4.131,4.131,0,0,1,4.128-4.128H149.51a2.48,2.48,0,0,1,2.482,2.482v19.691a2.477,2.477,0,0,1-1.633,2.331l-24.28,8.835A2.479,2.479,0,0,1,125.232,253.392Zm2.482-28.53v22.5l19.317-7.03V224.866Zm21.8,17.209" transform="translate(-60.946 -136.886)" fill="#231f20"/>
      <path id="Path_442" data-name="Path 442" d="M76.31,274.184a2.482,2.482,0,0,1-2.482-2.482V247.761a4.134,4.134,0,0,1,4.128-4.128h22.632a2.48,2.48,0,0,1,2.482,2.482v16.748a2.479,2.479,0,0,1-1.633,2.331l-24.282,8.835A2.471,2.471,0,0,1,76.31,274.184ZM78.792,248.6V268.16l19.319-7.032V248.6Zm21.8,14.266" transform="translate(-36.754 -148.95)" fill="#231f20"/>
    </g>
  </g>
</svg>
