<svg xmlns="http://www.w3.org/2000/svg" width="256" height="217.48" viewBox="0 0 256 217.48">
  <g id="seo" transform="translate(0)">
    <path id="Path_349" data-name="Path 349" d="M0,0H11.27V13.525H0ZM0,0" transform="matrix(0.985, 0.174, -0.174, 0.985, 67.567, 77.761)" fill="#eef1eb"/>
    <path id="Path_350" data-name="Path 350" d="M0,0H11.271V9.035a4.491,4.491,0,0,1-4.491,4.49H0ZM0,0" transform="matrix(0.985, 0.174, -0.174, 0.985, 90.9, 102.656)" fill="#345a84"/>
    <path id="Path_351" data-name="Path 351" d="M215.108,69.152A17.954,17.954,0,1,1,197.154,51.2a17.954,17.954,0,0,1,17.953,17.953Zm0,0" transform="translate(-169.04 -27.815)" fill="#88d0ef"/>
    <path id="Path_352" data-name="Path 352" d="M0,18.64,41.937,0V54.1L0,35.461Zm0,0" transform="matrix(0.985, 0.174, -0.174, 0.985, 114.662, 65.467)" fill="#eef1eb"/>
    <path id="Path_353" data-name="Path 353" d="M0,0H13.526V24.8H0ZM0,0" transform="matrix(0.985, 0.174, -0.174, 0.985, 79.53, 100.725)" fill="#a9bfd1"/>
    <path id="Path_354" data-name="Path 354" d="M399.406,8.531,375.468,32.469V53.415h20.946l23.938-23.938ZM388.933,44.438a4.488,4.488,0,1,1,4.489-4.487A4.489,4.489,0,0,1,388.933,44.438Zm0,0" transform="translate(-203.426 -5.54)" fill="#d1e3ee"/>
    <path id="Path_355" data-name="Path 355" d="M6.474,0H29.592a6.474,6.474,0,0,1,6.474,6.474V25.085a6.474,6.474,0,0,1-6.474,6.474H6.474A6.474,6.474,0,0,1,0,25.085V6.474A6.474,6.474,0,0,1,6.474,0Zm0,0" transform="matrix(0.985, 0.174, -0.174, 0.985, 78.003, 70.447)" fill="#dd1c4b"/>
    <path id="Path_356" data-name="Path 356" d="M13.525,0,0,6.012V48.089L13.525,54.1Zm0,0" transform="matrix(0.985, 0.174, -0.174, 0.985, 142.766, 70.422)" fill="#d1e3ee"/>
    <path id="Path_357" data-name="Path 357" d="M358.652,362.749l21.159-21.159,29.621,29.621L388.273,392.37Zm0,0" transform="translate(-199.742 -177.883)" fill="#d1e3ee"/>
    <path id="Path_358" data-name="Path 358" d="M419,341.578l2.116,27.509,27.5,2.115Zm0,0" transform="translate(-238.929 -178.177)" fill="#a9bfd1"/>
    <g id="Group_26" data-name="Group 26" transform="translate(211.116 85.348)">
      <path id="Path_359" data-name="Path 359" d="M444.621,188.175a8.977,8.977,0,1,1-8.976-8.976A8.976,8.976,0,0,1,444.621,188.175Zm0,0" transform="translate(-405.721 -179.199)" fill="#88d0ef"/>
      <path id="Path_360" data-name="Path 360" d="M427.167,238.934h5.873a9.034,9.034,0,0,1,9.031,9.034v14.9H418.132v-14.9A9.033,9.033,0,0,1,427.167,238.934Zm0,0" transform="translate(-400.179 -217.988)" fill="#88d0ef"/>
      <path id="Path_361" data-name="Path 361" d="M387.438,202.25a5.984,5.984,0,1,1-5.984-5.984A5.984,5.984,0,0,1,387.438,202.25Zm0,0" transform="translate(-372.476 -190.281)" fill="#88d0ef"/>
      <path id="Path_362" data-name="Path 362" d="M375.911,238.934a8.977,8.977,0,0,1,8.977,8.976v8.977H366.934V247.91a8.977,8.977,0,0,1,8.977-8.976Zm0,0" transform="translate(-366.934 -217.988)" fill="#88d0ef"/>
    </g>
    <path id="Path_363" data-name="Path 363" d="M226.337,6.73,222.106,2.5,203.826,20.774a21.03,21.03,0,1,0,4.237,4.237Zm-35.03,45.762a14.962,14.962,0,1,1,14.96-14.962A14.962,14.962,0,0,1,191.307,52.492Zm0,0" transform="translate(-163.123 3.807)" fill="#d1e3ee"/>
    <path id="Path_364" data-name="Path 364" d="M183.524,358.4H171.555L153.6,376.351l32.915,32.915,23.938-23.938ZM169.44,380.221l11.969-11.969,4.231,4.231-11.97,11.969Zm13.207,13.209-4.231-4.231,11.969-11.969,4.231,4.23Zm0,0" transform="translate(-150.606 -204.185)" fill="#88d0ef"/>
    <path id="Path_365" data-name="Path 365" d="M405.555,85.332a4.489,4.489,0,1,0,4.489,4.489A4.489,4.489,0,0,0,405.555,85.332Zm0,0" transform="translate(-220.3 -55.147)"/>
    <path id="Path_366" data-name="Path 366" d="M395.981.877a2.992,2.992,0,0,0-4.231,0L367.811,24.815a3,3,0,0,0-.877,2.115V47.876a2.992,2.992,0,0,0,2.993,2.993h20.946a2.993,2.993,0,0,0,2.115-.877l23.938-23.939a2.992,2.992,0,0,0,0-4.231Zm-6.347,44.007H372.919V28.17L393.865,7.223,410.58,23.938Zm0,0" transform="translate(-197.91 -0.001)"/>
    <path id="Path_367" data-name="Path 367" d="M2.255,38.321H9.017v.288a8.729,8.729,0,0,0,6.763,8.485V67.626a2.254,2.254,0,0,0,2.254,2.255H31.559a2.255,2.255,0,0,0,2.254-2.255V58.609h2.272a6.762,6.762,0,0,0,6.744-6.744v-4.77a8.718,8.718,0,0,0,6.217-5.547L87,58.415a2.256,2.256,0,0,0,3.17-2.061V2.254A2.255,2.255,0,0,0,87,.194L49.046,17.062a8.712,8.712,0,0,0-8.183-5.792H17.745A8.738,8.738,0,0,0,9.017,20v.289H2.255A2.254,2.254,0,0,0,0,22.542V36.066a2.254,2.254,0,0,0,2.255,2.255ZM76.642,9.729,85.66,5.723V52.885l-9.018-4.006ZM49.592,21.753,72.134,11.733V46.887L49.592,36.856ZM29.3,56.354v9.017H20.288V47.338H29.3Zm9.017-4.49A2.238,2.238,0,0,1,36.085,54.1H33.813V47.338h4.508Zm-24.8-15.8V20a4.226,4.226,0,0,1,4.22-4.22H40.864A4.226,4.226,0,0,1,45.084,20V38.61a4.225,4.225,0,0,1-4.22,4.219H17.745a4.225,4.225,0,0,1-4.22-4.219ZM4.508,24.8H9.017v9.017H4.508Zm0,0" transform="matrix(0.985, 0.174, -0.174, 0.985, 69.23, 55.263)"/>
    <path id="Path_368" data-name="Path 368" d="M376.387,333.924a2.992,2.992,0,0,0-4.231,0l-21.161,21.161a2.992,2.992,0,0,0,0,4.231l29.624,29.624a2.99,2.99,0,0,0,4.23,0l21.159-21.159a2.992,2.992,0,0,0,0-4.231Zm19.671,28.128-16.886-1.3-1.3-16.886Zm-13.325,20.533L357.34,357.2l14.444-14.443,1.619,21.017a2.991,2.991,0,0,0,2.752,2.756l21.022,1.615Zm0,0" transform="translate(-194.202 -172.336)"/>
    <path id="Path_369" data-name="Path 369" d="M191.522,58.476a20.9,20.9,0,0,0,16.756-33.466L226.558,6.73,222.321,2.5,204.042,20.774a20.945,20.945,0,1,0-12.52,37.7Zm0-35.908A14.962,14.962,0,1,1,176.561,37.53a14.962,14.962,0,0,1,14.962-14.962Zm0,0" transform="translate(-163.338 3.807)"/>
    <path id="Path_370" data-name="Path 370" d="M361.394,215.476h14.962v2.992a2.992,2.992,0,0,0,2.992,2.993h23.939a2.993,2.993,0,0,0,2.992-2.993v-14.9a12.005,12.005,0,0,0-8.023-11.289,11.968,11.968,0,1,0-13.877,0,12.01,12.01,0,0,0-5.016,3.416,11.95,11.95,0,0,0-3.743-2.887,8.976,8.976,0,1,0-10.5,0,11.941,11.941,0,0,0-6.72,10.7v8.977a2.993,2.993,0,0,0,2.991,2.993Zm29.924-38.9a5.985,5.985,0,1,1-5.984,5.984A5.985,5.985,0,0,1,391.318,176.575Zm-8.977,35.908v-8.92a6.051,6.051,0,0,1,6.042-6.042h5.871a6.05,6.05,0,0,1,6.041,6.042v11.911H382.34Zm-11.969-29.924a2.993,2.993,0,1,1-2.993,2.993A2.993,2.993,0,0,1,370.372,182.559Zm-5.984,20.946a5.984,5.984,0,0,1,11.969,0v5.984H364.387Zm0,0" transform="translate(-150.278 -88.237)"/>
    <path id="Path_371" data-name="Path 371" d="M177.985,349.867H166.016a2.988,2.988,0,0,0-2.115.877L145.946,368.7a2.994,2.994,0,0,0,0,4.231l32.915,32.915a2.992,2.992,0,0,0,4.231,0l23.939-23.938a2.994,2.994,0,0,0,0-4.231L180.1,350.744A2.993,2.993,0,0,0,177.985,349.867Zm2.993,49.629-28.684-28.683,14.96-14.962h9.492l23.938,23.938Zm0,0" transform="translate(-145.071 -198.646)"/>
    <path id="Path_372" data-name="Path 372" d="M198.77,398.467l11.969-11.97,4.231,4.233L203,402.7Zm0,0" transform="translate(-179.954 -222.664)"/>
    <path id="Path_373" data-name="Path 373" d="M224.363,424.066l11.97-11.969,4.231,4.231L228.6,428.3Zm0,0" transform="translate(-196.49 -239.055)"/>
  </g>
</svg>
