<svg xmlns="http://www.w3.org/2000/svg" width="22" height="22" viewBox="0 0 22 22">
  <path id="edit" d="M21.635,6.366a11.537,11.537,0,0,0-4.017-3.983L19,1a4.938,4.938,0,0,1,3,1,4.938,4.938,0,0,1,1,3ZM10,18H6V14l.48-.48a8.374,8.374,0,0,1,4,4ZM20.48,7.52l-8.846,8.845a11.611,11.611,0,0,0-1.748-2.229,11.552,11.552,0,0,0-2.269-1.754L16.48,3.52a8.362,8.362,0,0,1,4,4ZM4,4V20H20V13l3-3.038V21a2,2,0,0,1-2,2H3a2,2,0,0,1-2-2V3A2,2,0,0,1,3,1H14.01l-3,3Z" transform="translate(-1 -1)" fill="#292930"/>
</svg>
