<?xml version="1.0" encoding="utf-8"?>
<!-- Generator: Adobe Illustrator 23.0.3, SVG Export Plug-In . SVG Version: 6.00 Build 0)  -->
<!DOCTYPE svg PUBLIC "-//W3C//DTD SVG 1.1//EN" "http://www.w3.org/Graphics/SVG/1.1/DTD/svg11.dtd" [
	<!ENTITY ns_extend "http://ns.adobe.com/Extensibility/1.0/">
	<!ENTITY ns_ai "http://ns.adobe.com/AdobeIllustrator/10.0/">
	<!ENTITY ns_graphs "http://ns.adobe.com/Graphs/1.0/">
	<!ENTITY ns_vars "http://ns.adobe.com/Variables/1.0/">
	<!ENTITY ns_imrep "http://ns.adobe.com/ImageReplacement/1.0/">
	<!ENTITY ns_sfw "http://ns.adobe.com/SaveForWeb/1.0/">
	<!ENTITY ns_custom "http://ns.adobe.com/GenericCustomNamespace/1.0/">
	<!ENTITY ns_adobe_xpath "http://ns.adobe.com/XPath/1.0/">
]>
<svg version="1.1" id="Слой_1" xmlns:x="&ns_extend;" xmlns:i="&ns_ai;" xmlns:graph="&ns_graphs;"
	 xmlns="http://www.w3.org/2000/svg" xmlns:xlink="http://www.w3.org/1999/xlink" x="0px" y="0px" viewBox="0 0 132 38"
	 style="enable-background:new 0 0 132 38;" xml:space="preserve">
<style type="text/css">
	.st0{enable-background:new    ;}
	.st1{fill:#FFFFFF;}
</style>
<metadata>
	<sfw  xmlns="&ns_sfw;">
		<slices></slices>
		<sliceSourceBounds  bottomLeftOrigin="true" height="21.8" width="130.6" x="0.7" y="7.6"></sliceSourceBounds>
	</sfw>
</metadata>
<g id="Symbol_1_1" transform="translate(-49 -2728)">
	<g class="st0">
		<path class="st1" d="M64.2,2758l-1-3.3h-7.4l-1,3.3h-5.3l6.8-21h6.1l6.8,21H64.2z M57.2,2750.2h4.7l-2.3-8L57.2,2750.2z"/>
		<path class="st1" d="M79.3,2758.4c-2.2,0-4.1-0.6-5.6-1.8c-1.5-1.2-2.2-2.9-2.2-5.3h4.8c0,0.8,0.2,1.4,0.7,1.8
			c0.5,0.4,1.2,0.6,2.3,0.6c1.7,0,2.6-0.5,2.6-1.6c0-0.3-0.1-0.6-0.2-0.8c-0.2-0.2-0.4-0.4-0.8-0.6c-0.4-0.2-0.7-0.4-1-0.5
			c-0.3-0.1-0.7-0.3-1.3-0.5c-0.6-0.2-1-0.4-1.3-0.5c-0.3-0.1-0.7-0.3-1.3-0.5s-1-0.5-1.3-0.7c-0.3-0.2-0.6-0.5-1.1-0.9
			c-0.4-0.4-0.7-0.7-0.9-1.1c-0.2-0.4-0.4-0.8-0.6-1.4c-0.2-0.5-0.2-1.1-0.2-1.8c0-2,0.7-3.5,2.1-4.6c1.4-1.1,3-1.7,4.9-1.7
			c2,0,3.8,0.6,5.2,1.8c1.4,1.2,2.1,2.9,2.1,5.3h-4.8c0-1.6-0.8-2.3-2.5-2.3c-0.7,0-1.3,0.2-1.6,0.5c-0.4,0.3-0.6,0.7-0.6,1.2
			c0,0.6,0.2,1,0.7,1.4c0.5,0.4,1.2,0.7,2.2,1.1c2,0.7,3.3,1.2,4,1.6c2,1.2,3.1,2.9,3.1,5.1c0,2-0.7,3.6-2.1,4.7
			S81.5,2758.4,79.3,2758.4z"/>
		<path class="st1" d="M103.2,2737v4.6h-4.8v16.4h-4.8v-16.4h-4.8v-4.6h9.6H103.2z"/>
		<path class="st1" d="M119.2,2758l-5.5-6.9h-1.9v6.9h-4.8v-21h4.8h3.3c2,0,3.7,0.7,5.1,2.1c1.4,1.4,2.1,3.1,2.1,5.1
			c0,1.2-0.3,2.4-1,3.5c-0.7,1.1-1.6,1.9-2.7,2.6l6.1,7.8H119.2z M111.9,2741.5v5.4h3.3c0.7,0,1.2-0.3,1.7-0.8
			c0.5-0.5,0.7-1.2,0.7-1.9s-0.2-1.4-0.7-1.9s-1-0.8-1.7-0.8H111.9z"/>
		<path class="st1" d="M132.6,2753.4h7.8v4.6h-11.1h-1.5v-21h4.8h7.6v4.6h-7.6v3.5h6.9v4.5h-6.9V2753.4z"/>
		<path class="st1" d="M161.4,2737l-6.8,11.8v9.2h-4.8v-9.2l-6.8-11.8h5.5l3.7,7.1l3.7-7.1H161.4z"/>
		<path class="st1" d="M175.1,2758l-1-3.3h-7.4l-1,3.3h-5.3l6.8-21h6.1l6.8,21H175.1z M168.1,2750.2h4.7l-2.3-8L168.1,2750.2z"/>
	</g>
</g>
</svg>
