<?xml version="1.0" encoding="iso-8859-1"?>
<!-- Generator: Adobe Illustrator 19.0.0, SVG Export Plug-In . SVG Version: 6.00 Build 0)  -->
<svg version="1.1" id="Capa_1" xmlns="http://www.w3.org/2000/svg" xmlns:xlink="http://www.w3.org/1999/xlink" x="0px" y="0px"
	 viewBox="0 0 512 512" style="enable-background:new 0 0 512 512;" xml:space="preserve">
<g>
	<polygon style="fill:#3C5485;" points="395.104,405.446 444.241,501.998 256.002,501.998 67.76,501.998 116.743,405.75 	"/>
	<polygon style="fill:#FD4A4A;" points="352.417,321.566 410.733,436.155 101.269,436.155 159.585,321.566 	"/>
	<polygon style="fill:#E1E6E9;" points="256.002,132.107 304.21,226.837 207.793,226.837 	"/>
	<polygon style="fill:#FF8346;" points="304.21,226.837 350.121,317.053 352.417,321.566 159.585,321.566 161.881,317.053 
		207.793,226.837 	"/>
	<rect x="10" y="10" style="fill:#FD4A4A;" width="66.828" height="66.828"/>
</g>
<path d="M114.329,20h88.904c5.522,0,10-4.477,10-10s-4.478-10-10-10h-88.904c-5.522,0-10,4.477-10,10
	C104.329,15.523,108.806,20,114.329,20z"/>
<path d="M10,86.827h66.828c5.522,0,10-4.478,10-10V10c0-5.523-4.478-10-10-10H10C4.478,0,0,4.477,0,10v66.828
	C0.001,82.351,4.478,86.827,10,86.827z M20,20h46.828v46.828H20V20z"/>
<path d="M114.329,53.054h41.438c5.522,0,10-4.477,10-10s-4.478-10-10-10h-41.438c-5.522,0-10,4.477-10,10
	C104.329,48.577,108.806,53.054,114.329,53.054z"/>
<path d="M136.796,216.837c-5.523,0-10,4.477-10,10s4.477,10,10,10h0.475c5.522,0,10-4.477,10-10s-4.478-10-10-10H136.796z"/>
<path d="M172.265,426.155h-0.475c-5.522,0-10,4.477-10,10c0,5.523,4.478,10,10,10h0.475c5.522,0,10-4.477,10-10
	S177.788,426.155,172.265,426.155z"/>
<path d="M502.001,491.999h-51.628l-23.331-45.844h25.129c5.522,0,10-4.477,10-10c0-5.523-4.478-10-10-10h-35.307L264.913,127.572
	c-1.706-3.353-5.15-5.464-8.912-5.464c-3.763,0-7.206,2.111-8.912,5.464l-45.429,89.265h-35.306c-5.522,0-10,4.477-10,10
	s4.478,10,10,10h25.128L61.629,491.999H10c-5.522,0-10,4.477-10,10s4.478,10,10,10h434.232c0.005,0,0.01,0.001,0.015,0.001
	c0.006,0,0.011-0.001,0.017-0.001H502c5.522,0,10-4.477,10-10C512,496.476,507.523,491.999,502.001,491.999z M256,154.156
	l31.899,62.682H224.1L256,154.156z M298.078,236.837l38.031,74.73H175.892l38.031-74.73L298.078,236.837L298.078,236.837z
	 M107.4,446.155h35.307c5.522,0,10-4.477,10-10c0-5.523-4.478-10-10-10h-25.129l48.138-94.588h180.571l48.138,94.588H221.672
	c-5.523,0-10,4.477-10,10c0,5.523,4.477,10,10,10h182.929l23.331,45.844H84.069L107.4,446.155z"/>
<g>
</g>
<g>
</g>
<g>
</g>
<g>
</g>
<g>
</g>
<g>
</g>
<g>
</g>
<g>
</g>
<g>
</g>
<g>
</g>
<g>
</g>
<g>
</g>
<g>
</g>
<g>
</g>
<g>
</g>
</svg>
