<svg xmlns="http://www.w3.org/2000/svg" width="20" height="17" viewBox="0 0 20 17">
  <g id="date" transform="translate(0 0)">
    <rect id="Rectangle_1" data-name="Rectangle 1" width="10.916" height="0.822" transform="translate(4.553 1.199)"/>
    <path id="Path_17" data-name="Path 17" d="M38.627,32.1h-1v.854h1a1.282,1.282,0,0,1,1.308,1.259V36.1H21.688V34.213A1.282,1.282,0,0,1,23,32.954h1V32.1H23a2.153,2.153,0,0,0-2.2,2.113V45.788A2.153,2.153,0,0,0,23,47.9H37.248c1.238,0,3.551-2.18,3.551-3.326V34.235A2.123,2.123,0,0,0,38.627,32.1Zm-.935,14.812V44.8h2.173A5.647,5.647,0,0,1,37.692,46.912Zm2.243-2.944H37.272a.436.436,0,0,0-.444.427v2.652H23.02a1.282,1.282,0,0,1-1.308-1.259V36.932H39.958v7.035Z" transform="translate(-20.8 -30.901)"/>
    <path id="Path_18" data-name="Path 18" d="M52.143,64.519H50.277v-.133c0-.333.155-.622.733-1.244a3.45,3.45,0,0,0,1.222-2.465,1.47,1.47,0,1,0-2.932,0v.6h.933V60.61c0-.444.2-.622.511-.622s.511.155.511.711a2.686,2.686,0,0,1-.955,1.954,2.7,2.7,0,0,0-.977,2v.777h2.843v-.911Z" transform="translate(-42.581 -51.776)"/>
    <path id="Path_19" data-name="Path 19" d="M66.566,65.708a1.378,1.378,0,0,0,1.466-1.577v-1.4c0-.911-.378-1.421-1.088-1.421a.887.887,0,0,0-.844.466h-.022l.089-1.488h1.71V59.4h-2.6L65.1,63.02h.933v-.178c0-.444.2-.622.511-.622s.511.178.511.622V64.2c0,.444-.2.6-.511.6s-.511-.155-.511-.6V63.62H65.1v.511C65.1,65.152,65.589,65.708,66.566,65.708Z" transform="translate(-54.657 -52.008)"/>
    <path id="Path_20" data-name="Path 20" d="M35.255,26.7a.749.749,0,0,0-.755.755v1.71a.755.755,0,0,0,1.51,0v-1.71A.763.763,0,0,0,35.255,26.7Z" transform="translate(-31.285 -26.7)"/>
    <path id="Path_21" data-name="Path 21" d="M86,28.821v.444a.755.755,0,1,0,1.51,0v-1.71a.755.755,0,0,0-1.51,0v1.266Z" transform="translate(-70.702 -26.778)"/>
    <path id="Path_22" data-name="Path 22" d="M46.566,40.733v-.888c0-.289-.133-.444-.422-.444H45.7v1.755h.444A.376.376,0,0,0,46.566,40.733Zm-.555.178V39.667h.155c.089,0,.133.044.133.178v.911c0,.133-.044.178-.133.178h-.155Z" transform="translate(-39.869 -36.544)"/>
    <path id="Path_23" data-name="Path 23" d="M51.155,40.91h-.466V40.4h.378v-.267h-.378v-.489h.466V39.4H50.4v1.755h.755Z" transform="translate(-43.47 -36.544)"/>
    <path id="Path_24" data-name="Path 24" d="M54.822,40.943a.392.392,0,0,0,.422-.444v-.244h-.267V40.5c0,.133-.044.178-.133.178s-.133-.044-.133-.178v-.955c0-.133.044-.178.133-.178s.133.044.133.178v.178h.267v-.178c0-.289-.133-.444-.422-.444a.392.392,0,0,0-.422.444v.911C54.422,40.788,54.555,40.943,54.822,40.943Z" transform="translate(-46.532 -36.312)"/>
    <path id="Path_25" data-name="Path 25" d="M59.655,40.91h-.466V40.4h.378v-.267h-.378v-.489h.466V39.4H58.9v1.755h.755Z" transform="translate(-49.98 -36.544)"/>
    <path id="Path_26" data-name="Path 26" d="M63.344,39.911h0l.2,1.244h.267l.178-1.266h0v1.266h.267V39.4h-.378l-.2,1.244h0l-.2-1.244H63.1v1.755h.244Z" transform="translate(-53.185 -36.544)"/>
    <path id="Path_27" data-name="Path 27" d="M70.044,40.733V40.6a.389.389,0,0,0-.2-.378h0a.342.342,0,0,0,.178-.355V39.8a.353.353,0,0,0-.4-.4H69.2v1.755h.444C69.911,41.155,70.044,41.021,70.044,40.733Zm-.577-1.088H69.6c.089,0,.133.044.133.178v.089c0,.133-.067.178-.155.178h-.111Zm0,.733H69.6c.133,0,.178.044.178.222v.155c0,.133-.044.178-.133.178h-.155v-.555Z" transform="translate(-57.866 -36.544)"/>
    <path id="Path_28" data-name="Path 28" d="M74.533,40.91h-.466V40.4h.378v-.267h-.378v-.489h.466V39.4H73.8v1.755h.733Z" transform="translate(-61.393 -36.544)"/>
    <path id="Path_29" data-name="Path 29" d="M78.267,40.444h.089c.133,0,.178.067.178.222v.267a.5.5,0,0,0,.022.222h.289a.684.684,0,0,1-.022-.222v-.267a.375.375,0,0,0-.178-.378h0a.342.342,0,0,0,.178-.355V39.8a.353.353,0,0,0-.4-.4H78v1.755h.267Zm0-.8H78.4c.089,0,.133.044.133.178V40c0,.133-.067.178-.155.178h-.111Z" transform="translate(-64.605 -36.544)"/>
  </g>
</svg>
