<svg xmlns="http://www.w3.org/2000/svg" width="21.029" height="21.049" viewBox="0 0 21.029 21.049">
  <g id="email" transform="translate(0.512 0.523)">
    <path id="Path_42" data-name="Path 42" d="M75.708,98.983a18.092,18.092,0,0,0,3.7,4.512c.286.019,4.951-5.3,4.816-5.659s-9.436-.478-9.692-.115a51.212,51.212,0,0,0,.06,8.6c.226.229,9.376.249,9.572-.153a31.393,31.393,0,0,0,.151-6.5" transform="translate(-69.537 -91.841)" fill="none" stroke="#292930" stroke-linecap="round" stroke-miterlimit="10" stroke-width="1"/>
    <path id="Path_43" data-name="Path 43" d="M36.672,54.369A10.038,10.038,0,0,0,49,46.829,10.243,10.243,0,0,0,41.589,35a10.034,10.034,0,0,0-6.518,18.88" transform="translate(-29.209 -34.698)" fill="none" stroke="#292930" stroke-linecap="round" stroke-linejoin="round" stroke-miterlimit="10" stroke-width="1"/>
  </g>
</svg>
