<svg xmlns="http://www.w3.org/2000/svg" width="19.986" height="21.414" viewBox="0 0 19.986 21.414">
  <g id="map" transform="translate(0 0)">
    <g id="Group_3" data-name="Group 3">
      <g id="Group_2" data-name="Group 2">
        <path id="Path_30" data-name="Path 30" d="M59.928,7.123a.356.356,0,0,0,.442-.243A8.578,8.578,0,0,1,70.391.9a1.864,1.864,0,0,0,.352,1.092c.04.063.094.148.1.16,0,1.28-.262,1.488-.259,1.489A2.541,2.541,0,0,0,68.7,4.827a1.14,1.14,0,0,0,.05,1.218,8.627,8.627,0,0,1,.464.823c.3.587.64,1.239,1.168,1.239a.81.81,0,0,0,.363-.095,3.061,3.061,0,0,0,1-1.372,4.546,4.546,0,0,1,.424-.739c.362.049.539.377.779.9a1.828,1.828,0,0,0,.717.955c.6.3,2.586-.014,3.682-.48a.357.357,0,0,0,.2-.421A9.333,9.333,0,0,0,72.111.689a.357.357,0,1,0-.271.66A8.623,8.623,0,0,1,76.776,6.73a6.373,6.373,0,0,1-2.79.384c-.134-.067-.269-.359-.388-.616-.249-.539-.59-1.277-1.46-1.316-.45-.027-.7.49-1.029,1.137a3.03,3.03,0,0,1-.71,1.065c-.132-.031-.4-.54-.552-.844a9.235,9.235,0,0,0-.5-.891.428.428,0,0,1-.014-.485,1.9,1.9,0,0,1,1.256-.806c.645,0,.973-.741.973-2.2a1.024,1.024,0,0,0-.209-.541A1.088,1.088,0,0,1,71.132.7a.357.357,0,0,0-.261-.422,9.293,9.293,0,0,0-11.185,6.4A.357.357,0,0,0,59.928,7.123Z" transform="translate(-57.889 0)" fill="#292930"/>
        <path id="Path_31" data-name="Path 31" d="M305.628,221.709c-.1.029-.244.07-.282.073a1.4,1.4,0,0,0-1.034.661c-.087.106-.244.3-.345.3a1.118,1.118,0,0,0-.5-.121.86.86,0,0,0-.867.6.692.692,0,0,0,.436.779,6.664,6.664,0,0,1,1.445.856,1.238,1.238,0,0,0,.871.289,1.6,1.6,0,0,0,1.566-1.043,2,2,0,0,1,.578-.759,1.282,1.282,0,0,0,.533-.86.821.821,0,0,0-.274-.592,1.38,1.38,0,0,0-1.016-.378A4.119,4.119,0,0,0,305.628,221.709Zm1.684.76a1.531,1.531,0,0,1-.313.354,2.622,2.622,0,0,0-.762,1.05.916.916,0,0,1-.889.555.679.679,0,0,1-.366-.079,6.79,6.79,0,0,0-1.631-.99l0,0a.4.4,0,0,1,.3.025.781.781,0,0,0,.352.087,1.178,1.178,0,0,0,.864-.574c.161-.2.327-.4.482-.4a1.9,1.9,0,0,0,.478-.1,3.5,3.5,0,0,1,.913-.173.688.688,0,0,1,.511.169A.6.6,0,0,1,307.313,222.468Z" transform="translate(-290.64 -212.244)" fill="#292930"/>
        <path id="Path_32" data-name="Path 32" d="M69.67,163.075a.357.357,0,1,0-.707.1,8.691,8.691,0,0,1,.082,1.186,8.575,8.575,0,0,1-8.463,8.565c-1.269-.81-2.459-1.8-1.929-3.04.951-2.221.066-3.049-.312-3.4l-.071-.067a1.688,1.688,0,0,0-.338-.246c-.261-.157-.332-.2-.191-.62a1.34,1.34,0,0,1,.359-.561,2.071,2.071,0,0,0,.582-1.706A1.345,1.345,0,0,0,57.865,162a1.78,1.78,0,0,0-1.792.209.807.807,0,0,0-.239.882c.254.762-.327,1.863-1.413,2.678-.288.216-.373.117-.425.058a1.719,1.719,0,0,1-.032-1.673.529.529,0,0,0,.139-.6c-.289-.656-2.133-.6-2.5-.588a.357.357,0,0,0-.338.313,8.436,8.436,0,0,0-.065,1.082,9.258,9.258,0,0,0,7.046,9.008.357.357,0,0,0,.171-.693,8.546,8.546,0,0,1-6.5-8.316c0-.248.009-.466.027-.689a5.322,5.322,0,0,1,1.378.149,2.413,2.413,0,0,0,.136,2.473.953.953,0,0,0,1.392.045c1.371-1.028,2.024-2.393,1.662-3.475-.011-.035-.023-.069.043-.128a1.082,1.082,0,0,1,1.023-.084.628.628,0,0,1,.393.633c0,.806-.162.978-.387,1.215a2.033,2.033,0,0,0-.517.826,1.049,1.049,0,0,0,.5,1.458,1.1,1.1,0,0,1,.2.138c.026.026.056.054.088.084.314.293.9.84.144,2.6-.855,2,1.35,3.387,2.291,3.981a.36.36,0,0,0,.191.055,9.29,9.29,0,0,0,9.279-9.279A9.393,9.393,0,0,0,69.67,163.075Z" transform="translate(-49.772 -155.08)" fill="#292930"/>
        <path id="Path_33" data-name="Path 33" d="M33.738,221.71a9.994,9.994,0,0,1-15.957-8.019.357.357,0,1,0-.714,0,10.718,10.718,0,0,0,10.35,10.7v1.08a.357.357,0,0,0,.714,0v-1.085a10.6,10.6,0,0,0,6.034-2.1.357.357,0,0,0-.427-.572Z" transform="translate(-17.067 -204.412)" fill="#292930"/>
        <path id="Path_34" data-name="Path 34" d="M251.069,345.745a1.571,1.571,0,0,0-1.158.973.809.809,0,0,0,.122.921,1.29,1.29,0,0,0,1.736,0,.914.914,0,0,0,.163-.98,2.034,2.034,0,0,0-.471-.755A.549.549,0,0,0,251.069,345.745Zm.194,1.388a.625.625,0,0,1-.725,0,.434.434,0,0,1,.09-.261,1.187,1.187,0,0,1,.391-.4,1.312,1.312,0,0,1,.234.4C251.293,347,251.3,347.1,251.263,347.133Z" transform="translate(-240.089 -331.285)" fill="#292930"/>
      </g>
    </g>
  </g>
</svg>
