<svg xmlns="http://www.w3.org/2000/svg" width="21" height="26" viewBox="0 0 21 26">
  <g id="password" transform="translate(0.5 0.5)">
    <path id="Path_44" data-name="Path 44" d="M166.9,111.574a9.083,9.083,0,0,1,5.115-3.142c.265-.058.531-.1.8-.133" transform="translate(-164.529 -108.217)" fill="none" stroke="#000" stroke-linecap="round" stroke-linejoin="round" stroke-miterlimit="10" stroke-width="1"/>
    <path id="Path_45" data-name="Path 45" d="M259.1,107.3h0" transform="translate(-248.822 -107.3)" fill="none" stroke="#000" stroke-linecap="round" stroke-linejoin="round" stroke-miterlimit="10" stroke-width="1"/>
    <path id="Path_46" data-name="Path 46" d="M278.2,109.5a5.7,5.7,0,0,1,.738.2,9.554,9.554,0,0,1,6.085,4.965,9.706,9.706,0,0,1,1.078,4.667" transform="translate(-266.1 -109.318)" fill="none" stroke="#000" stroke-linecap="round" stroke-linejoin="round" stroke-miterlimit="10" stroke-width="1"/>
    <path id="Path_47" data-name="Path 47" d="M138.4,295.7v5.6a3.439,3.439,0,0,0,.091.771,3.384,3.384,0,0,0,3.473,2.653h7.3" transform="translate(-138.392 -279.727)" fill="none" stroke="#000" stroke-linecap="round" stroke-linejoin="round" stroke-miterlimit="10" stroke-width="1"/>
    <path id="Path_48" data-name="Path 48" d="M288.6,404.6h.05" transform="translate(-275.819 -379.6)" fill="none" stroke="#000" stroke-linecap="round" stroke-linejoin="round" stroke-miterlimit="10" stroke-width="1"/>
    <path id="Path_49" data-name="Path 49" d="M152.739,244.84h1.879a4.685,4.685,0,0,0,.765-.05,3.4,3.4,0,0,0,2.883-3.432c.009-3.565,0-7.129,0-10.685V230.4H138.309c0,.083-.008.149-.008.207v2.86" transform="translate(-138.3 -219.84)" fill="none" stroke="#000" stroke-linecap="round" stroke-linejoin="round" stroke-miterlimit="10" stroke-width="1"/>
    <path id="Path_50" data-name="Path 50" d="M241.317,310.433a1.558,1.558,0,1,1-3.117.017,1.559,1.559,0,0,1,3.117-.017Z" transform="translate(-229.665 -291.912)" fill="none" stroke="#000" stroke-miterlimit="10" stroke-width="1"/>
  </g>
</svg>
