<svg xmlns="http://www.w3.org/2000/svg" width="20.7" height="20.7" viewBox="0 0 20.7 20.7">
  <g id="user" transform="translate(0.35 0.35)">
    <g id="Group_4" data-name="Group 4">
      <ellipse id="Ellipse_3" data-name="Ellipse 3" cx="5.801" cy="5.872" rx="5.801" ry="5.872" transform="translate(4.2)" fill="none" stroke="#292930" stroke-linecap="round" stroke-linejoin="round" stroke-miterlimit="10" stroke-width="0.7"/>
      <path id="Path_36" data-name="Path 36" d="M19.122,16.546A3.624,3.624,0,0,1,23.385,13.7" transform="translate(-13.049 -12.221)" fill="none" stroke="#292930" stroke-linecap="round" stroke-linejoin="round" stroke-miterlimit="10" stroke-width="0.7"/>
      <path id="Path_37" data-name="Path 37" d="M11.542,34.758a5.714,5.714,0,0,1,5.677-5.717h8.647a5.714,5.714,0,0,1,5.677,5.717" transform="translate(-11.542 -14.758)" fill="none" stroke="#292930" stroke-linecap="round" stroke-linejoin="round" stroke-miterlimit="10" stroke-width="0.7"/>
      <path id="Path_38" data-name="Path 38" d="M18.972,18.687a5,5,0,0,0,0,1.171" transform="translate(-13 -13.066)" fill="none" stroke="#292930" stroke-linecap="round" stroke-linejoin="round" stroke-miterlimit="10" stroke-width="0.7"/>
      <ellipse id="Ellipse_4" data-name="Ellipse 4" cx="5.801" cy="5.872" rx="5.801" ry="5.872" transform="translate(4.2)" fill="none" stroke="#292930" stroke-linecap="round" stroke-linejoin="round" stroke-miterlimit="10" stroke-width="0.7"/>
      <path id="Path_39" data-name="Path 39" d="M19.122,16.546A3.624,3.624,0,0,1,23.385,13.7" transform="translate(-13.049 -12.221)" fill="none" stroke="#292930" stroke-linecap="round" stroke-linejoin="round" stroke-miterlimit="10" stroke-width="0.7"/>
      <path id="Path_40" data-name="Path 40" d="M11.542,34.758a5.714,5.714,0,0,1,5.677-5.717h8.647a5.714,5.714,0,0,1,5.677,5.717" transform="translate(-11.542 -14.758)" fill="none" stroke="#292930" stroke-linecap="round" stroke-linejoin="round" stroke-miterlimit="10" stroke-width="0.7"/>
      <path id="Path_41" data-name="Path 41" d="M18.972,18.687a5,5,0,0,0,0,1.171" transform="translate(-13 -13.066)" fill="none" stroke="#292930" stroke-linecap="round" stroke-linejoin="round" stroke-miterlimit="10" stroke-width="0.7"/>
    </g>
  </g>
</svg>
