<?xml version="1.0" encoding="utf-8"?>
<!-- Generator: Adobe Illustrator 23.0.1, SVG Export Plug-In . SVG Version: 6.00 Build 0)  -->
<svg version="1.1" id="Слой_1" xmlns="http://www.w3.org/2000/svg" xmlns:xlink="http://www.w3.org/1999/xlink" x="0px" y="0px"
	 viewBox="0 0 496 405" style="enable-background:new 0 0 496 405;" xml:space="preserve">
<style type="text/css">
	.st0{fill:#231F20;}
</style>
<g>
	<path class="st0" d="M248,132c-22.1,0-40,17.9-40,40s17.9,40,40,40s40-17.9,40-40C288,149.9,270.1,132,248,132z M248,196
		c-13.3,0-24-10.7-24-24s10.7-24,24-24s24,10.7,24,24S261.3,196,248,196z"/>
	<path class="st0" d="M104,132c-22.1,0-40,17.9-40,40s17.9,40,40,40s40-17.9,40-40C144,149.9,126.1,132,104,132z M104,196
		c-13.3,0-24-10.7-24-24s10.7-24,24-24s24,10.7,24,24S117.3,196,104,196z"/>
	<path class="st0" d="M392,132c-22.1,0-40,17.9-40,40s17.9,40,40,40s40-17.9,40-40C432,149.9,414.1,132,392,132z M392,196
		c-13.3,0-24-10.7-24-24s10.7-24,24-24s24,10.7,24,24S405.3,196,392,196z"/>
	<path class="st0" d="M408,12H88C39.4,12.1,0.1,51.4,0,100v144c0.1,48.6,39.4,87.9,88,88v56c0,3.2,1.9,6.2,4.9,7.4s6.4,0.6,8.7-1.7
		l61.7-61.7H408c48.6-0.1,87.9-39.4,88-88V100C495.9,51.4,456.6,12.1,408,12z M480,244c0,39.7-32.3,72-72,72H160
		c-2.1,0-4.2,0.8-5.7,2.3L104,368.7V324c0-4.4-3.6-8-8-8h-8c-39.7,0-72-32.3-72-72V100c0-39.7,32.3-72,72-72h320
		c39.7,0,72,32.3,72,72V244z"/>
</g>
</svg>
